<?xml version="1.0" standalone="no"?>
<!DOCTYPE svg PUBLIC "-//W3C//DTD SVG 1.1//EN" "http://www.w3.org/Graphics/SVG/1.1/DTD/svg11.dtd" >
<svg xmlns="http://www.w3.org/2000/svg" xmlns:xlink="http://www.w3.org/1999/xlink" version="1.1">
<metadata>
Created by FontForge 20200427 at Mon Jun 16 22:38:13 2014
 By www
Copyright (c) 2014 by Nikola &#38; Zoran Kostic. All rights reserved.
</metadata>
<defs>
<font id="BrillerW01-Black" horiz-adv-x="1200" >
  <font-face 
    font-family="BrillerW01-Black"
    font-weight="800"
    font-stretch="normal"
    units-per-em="1000"
    panose-1="2 0 0 0 0 0 0 0 0 0"
    ascent="800"
    descent="-200"
    x-height="540"
    cap-height="680"
    bbox="-183 -290 2207 960"
    underline-thickness="50"
    underline-position="-175"
    unicode-range="U+000D-2122"
  />
<missing-glyph horiz-adv-x="470" 
d="M117 59h235v616h-235v-616zM59 0v733h353v-733h-353z" />
    <glyph glyph-name=".notdef" horiz-adv-x="470" 
d="M117 59h235v616h-235v-616zM59 0v733h353v-733h-353z" />
    <glyph glyph-name="glyph1" horiz-adv-x="0" 
 />
    <glyph glyph-name="glyph1" horiz-adv-x="0" 
 />
    <glyph glyph-name="uni000D" unicode="&#xd;" horiz-adv-x="400" 
 />
    <glyph glyph-name="space" unicode=" " horiz-adv-x="400" 
 />
    <glyph glyph-name="exclam" unicode="!" horiz-adv-x="400" 
d="M294 690q40 0 40 -30v-77q0 -21 -2.5 -47t-6.5 -53.5t-9.5 -56.5t-10.5 -56q-13 -63 -29 -130h-152q-17 67 -29 130q-6 27 -11 56t-9 56.5t-6.5 53.5t-2.5 47v77q0 30 40 30h188zM56 83q0 41 33 65.5t111 24.5t111 -24.5t33 -65.5q0 -42 -33 -67.5t-111 -25.5t-111 25.5
t-33 67.5z" />
    <glyph glyph-name="quotedbl" unicode="&#x22;" horiz-adv-x="618" 
d="M215 720q31 0 44.5 -14.5t13.5 -36.5v-56q0 -14 -8 -46.5t-18 -64.5q-11 -39 -25 -82h-126q-15 43 -26 82q-10 32 -17.5 64.5t-7.5 46.5v56q0 22 16 36.5t42 14.5h112zM515 720q31 0 44.5 -14.5t13.5 -36.5v-56q0 -14 -8 -46.5t-18 -64.5q-11 -39 -25 -82h-126
q-15 43 -26 82q-10 32 -17.5 64.5t-7.5 46.5v56q0 22 16 36.5t42 14.5h112z" />
    <glyph glyph-name="numbersign" unicode="#" 
d="M50 540h234l28 140h258l-28 -140h192l28 140h258l-28 -140h158v-140h-185l-23 -120h208v-140h-235l-27 -140h-258l27 140h-192l-27 -140h-258l27 140h-157v140h184l23 120h-207v140zM492 280h192l23 120h-192z" />
    <glyph glyph-name="dollar" unicode="$" 
d="M407 4q-111 5 -196 13t-139 17l20 174q63 -8 144.5 -14.5t170.5 -11.5v73q-106 4 -171.5 13.5t-103.5 23.5q-41 15 -65.5 54t-24.5 96q0 75 32.5 122.5t109.5 73.5q42 14 99 22.5t124 13.5v106h138v-101q14 1 27.5 1h27.5t27.5 -0.5t27.5 -0.5v101h138v-105
q94 -5 166.5 -13.5t132.5 -19.5l-24 -174q-75 10 -143.5 16.5t-131.5 10.5v-72q68 -4 128 -11t105 -18q75 -19 103.5 -58t28.5 -96q0 -75 -23 -118t-72 -69q-44 -23 -116.5 -34t-153.5 -15v-104h-138v100h-55h-55v-100h-138v104zM600 428h27.5t27.5 -1v74q-14 1 -28 1h-27
h-55v-74h55zM655 178v74h-55h-55v-74h55h55zM328 432q8 -1 29 -1.5t50 -1.5v68q-29 -2 -50.5 -4.5t-32.5 -4.5q-24 -6 -24 -30q0 -11 6 -18t22 -8zM867 248q-11 1 -29.5 1.5t-44.5 0.5v-67q27 2 47 4t30 5q17 5 23.5 12.5t6.5 18.5t-7 17.5t-26 7.5z" />
    <glyph glyph-name="percent" unicode="%" horiz-adv-x="1201" 
d="M833 700h215v-20l-680 -700h-215v20zM30 512q0 51 17 84t46 53q31 21 71 31.5t104 10.5q65 0 104.5 -10.5t70.5 -31.5q29 -20 46 -53t17 -84q0 -50 -17 -83.5t-46 -53.5q-31 -21 -70.5 -31.5t-104.5 -10.5q-64 0 -104 10.5t-71 31.5q-29 20 -46 53.5t-17 83.5zM268 545
q-15 0 -29.5 -1.5t-21.5 -3.5q-11 -3 -15 -11t-4 -17q0 -22 19 -28q7 -2 21.5 -3.5t29.5 -1.5t29.5 1.5t21.5 3.5q19 6 19 28q0 9 -4 17t-15 11q-7 2 -21.5 3.5t-29.5 1.5zM695 169q0 51 17 84t46 53q31 21 71 31.5t104 10.5q65 0 104.5 -10.5t70.5 -31.5q29 -20 46 -53
t17 -84q0 -50 -17 -83.5t-46 -53.5q-31 -21 -70.5 -31.5t-104.5 -10.5q-64 0 -104 10.5t-71 31.5q-29 20 -46 53.5t-17 83.5zM933 202q-15 0 -29.5 -1.5t-21.5 -3.5q-11 -3 -15 -11t-4 -17q0 -22 19 -28q7 -2 21.5 -3.5t29.5 -1.5t29.5 1.5t21.5 3.5q19 6 19 28q0 9 -4 17
t-15 11q-7 2 -21.5 3.5t-29.5 1.5z" />
    <glyph glyph-name="ampersand" unicode="&#x26;" 
d="M126 357q5 2 11 5t14 5q-25 20 -38 46.5t-13 64.5q0 56 27.5 94t75.5 61q27 13 60.5 24t80.5 19.5t109.5 13t146.5 4.5q45 0 91.5 -2.5t89 -6.5t78 -9t58.5 -9l-26 -193q-47 5 -96 9q-42 3 -93.5 6t-101.5 3q-56 0 -94.5 -1.5t-64 -3.5t-39.5 -4.5t-21 -4.5
q-14 -5 -18.5 -11t-4.5 -14t5 -13.5t19 -8.5q9 -2 32.5 -3.5t53 -2t61 -1t57.5 -0.5h584v-168h-172v-24q0 -23 19.5 -33.5t65.5 -10.5q15 0 27.5 0.5t22.5 1.5q11 1 21 2l16 -188q-10 -2 -26.5 -4.5t-36.5 -4.5t-41 -3.5t-40 -1.5q-69 0 -118.5 11.5t-82.5 33.5
q-48 -20 -125 -34.5t-186 -14.5q-148 0 -242 16t-147 43q-95 48 -95 157q0 56 24 93.5t72 61.5zM740 256h-136q-36 0 -82 -0.5t-89 -1.5t-77 -2.5t-44 -3.5q-14 -2 -19 -8.5t-5 -14.5t5 -15t19 -11q21 -6 75.5 -8.5t126.5 -2.5q71 0 125.5 3.5t74.5 8.5q26 6 26 32v24z" />
    <glyph glyph-name="quotesingle" unicode="'" horiz-adv-x="318" 
d="M215 720q31 0 44.5 -14.5t13.5 -36.5v-56q0 -14 -8 -46.5t-18 -64.5q-11 -39 -25 -82h-126q-15 43 -26 82q-10 32 -17.5 64.5t-7.5 46.5v56q0 22 16 36.5t42 14.5h112z" />
    <glyph glyph-name="parenleft" unicode="(" horiz-adv-x="436" 
d="M266 300q0 -77 14.5 -142.5t36.5 -118.5t48.5 -94t50.5 -69v-46h-162q-33 22 -70.5 54.5t-69.5 86t-53 133t-21 196.5q0 108 20 183.5t51.5 128t69 87.5t73.5 61h162v-46q-26 -30 -52.5 -69.5t-48.5 -89.5t-35.5 -113.5t-13.5 -141.5z" />
    <glyph glyph-name="parenright" unicode=")" horiz-adv-x="436" 
d="M170 300q0 78 -13.5 141.5t-35.5 113.5t-48.5 89.5t-52.5 69.5v46h162q36 -26 73.5 -61t69 -87.5t51.5 -128t20 -183.5q0 -117 -21 -196.5t-53 -133t-69.5 -86t-70.5 -54.5h-162v46q24 28 50.5 69t48.5 94t36.5 118.5t14.5 142.5z" />
    <glyph glyph-name="asterisk" unicode="*" horiz-adv-x="600" 
d="M385 559l4 -3l125 40l52 -159l-126 -42l-1 -4l77 -106l-135 -98l-78 106h-4l-78 -106l-135 98l77 106l-1 4l-126 42l52 159l125 -40l4 3v131h168v-131z" />
    <glyph glyph-name="plus" unicode="+" 
d="M698 221v-201h-196v201h-352v178h352v201h196v-201h352v-178h-352z" />
    <glyph glyph-name="comma" unicode="," horiz-adv-x="400" 
d="M152 -13v6q-52 8 -74 31.5t-22 58.5q0 41 33 65.5t111 24.5t111 -24.5t33 -65.5q0 -45 -17 -78t-49 -73l-42 -52h-125v14z" />
    <glyph glyph-name="hyphen" unicode="-" horiz-adv-x="600" 
d="M50 211v178h500v-178h-500z" />
    <glyph glyph-name="period" unicode="." horiz-adv-x="400" 
d="M56 83q0 41 33 65.5t111 24.5t111 -24.5t33 -65.5q0 -42 -33 -67.5t-111 -25.5t-111 25.5t-33 67.5z" />
    <glyph glyph-name="slash" unicode="/" horiz-adv-x="559" 
d="M388 700h191v-20l-408 -780h-191v20z" />
    <glyph glyph-name="zero" unicode="0" horiz-adv-x="1294" 
d="M45 340q0 99 37.5 159.5t103.5 98.5q36 21 81.5 38.5t101.5 30t125 20t153 7.5t153 -7t125.5 -20t101.5 -30.5t82 -38.5q32 -18 58 -42.5t44 -56t28 -71t10 -88.5t-10 -88.5t-28 -71t-44 -56t-58 -42.5q-37 -21 -82 -38.5t-101.5 -30.5t-125.5 -20t-153 -7t-153 7.5
t-125 20t-101.5 30t-81.5 38.5q-67 38 -104 98.5t-37 159.5zM303 340q0 -39 20.5 -61.5t55.5 -36.5q81 -30 268 -30q185 0 268 30q35 14 55.5 36.5t20.5 61.5t-20.5 61.5t-55.5 35.5q-81 31 -268 31q-188 0 -268 -31q-35 -13 -55.5 -35.5t-20.5 -61.5z" />
    <glyph glyph-name="one" unicode="1" horiz-adv-x="676" 
d="M651 0h-258v431h-2l-355 -110h-16v207l523 162h108v-690z" />
    <glyph glyph-name="two" unicode="2" horiz-adv-x="1167" 
d="M333 244q-18 -4 -24 -12.5t-6 -19.5v-10h809v-202h-1067v202q0 29 6.5 56.5t22.5 52t42.5 45t66.5 35.5q58 21 154 32t234 11h75.5t79.5 0.5t68.5 1t42.5 1.5q17 2 22 6.5t5 12.5q0 17 -28 23q-22 5 -83 9t-162 4q-134 0 -252.5 -11.5t-226.5 -30.5l-36 192q43 10 104 19
t130 16.5t142 12t139 4.5q69 0 125.5 -2.5t103.5 -8t86 -14.5t74 -22q75 -27 108.5 -73t33.5 -120q0 -59 -22.5 -101t-67.5 -61q-26 -11 -60.5 -18t-85.5 -11t-123.5 -5.5t-175.5 -1.5q-31 0 -69 -0.5t-74 -2t-66 -4t-45 -5.5z" />
    <glyph glyph-name="three" unicode="3" horiz-adv-x="1098" 
d="M61 224q76 -10 153 -18q66 -7 140 -12.5t136 -5.5q88 0 147.5 4t95.5 10.5t51.5 15t15.5 18.5q0 12 -10 16t-39 4h-378v168h359q26 0 35.5 6t9.5 17q0 9 -7.5 17t-35 14t-80.5 10t-144 4q-86 0 -164 -6t-139 -13q-71 -9 -133 -19l-30 190q60 14 133 25q63 9 148 17t185 8
q154 0 255.5 -15t161.5 -41.5t84 -63.5t24 -82q0 -46 -16 -77t-47 -52v-6q38 -20 62 -51.5t24 -82.5q0 -53 -25 -98t-89 -77t-174 -49t-280 -13q-77 0 -156 7t-145 15q-77 10 -149 22z" />
    <glyph glyph-name="four" unicode="4" horiz-adv-x="1202" 
d="M1034 300h148v-202h-148v-98h-258v98h-766v152l693 430h331v-380zM455 294q22 1 45 3q19 1 41 2t40 1h195v181h-19l-193 -121q-8 -5 -26 -14.5t-37 -19.5l-48 -24z" />
    <glyph glyph-name="five" unicode="5" horiz-adv-x="1137" 
d="M325 429q53 2 105 4q45 2 93 3t84 1q134 0 231 -11.5t150 -33.5q52 -21 80.5 -63t28.5 -103q0 -78 -35.5 -125.5t-89.5 -68.5q-35 -14 -85 -22.5t-106.5 -14t-115.5 -7.5t-112 -2q-56 0 -123.5 2.5t-135 7t-130 10t-109.5 12.5l23 192q94 -8 212.5 -15t262.5 -7
q118 0 183.5 3t81.5 8q13 4 17 10t4 16q0 19 -22 25q-23 6 -81.5 7.5t-157.5 1.5h-507l-26 18l40 403h933v-192h-697l-3 -54z" />
    <glyph glyph-name="six" unicode="6" horiz-adv-x="1248" 
d="M352 452q-15 -8 -25 -18.5t-15 -26.5l4 -3q58 9 121 16q54 6 122.5 11.5t137.5 5.5q113 0 203.5 -7.5t158.5 -25.5q77 -21 110.5 -67.5t33.5 -114.5q0 -67 -26.5 -109.5t-70.5 -67.5q-57 -31 -168.5 -45t-260.5 -14q-92 0 -164.5 4.5t-131 14t-105.5 24.5t-88 36
q-67 35 -105 102t-38 160q0 91 32 157.5t100 108.5q36 22 83.5 40.5t109 32t138 21t169.5 7.5q149 0 267 -13t208 -33l-36 -195q-54 9 -102 16.5t-99 12.5t-108.5 7.5t-129.5 2.5q-118 0 -204 -10.5t-121 -29.5zM310 259q5 -22 18.5 -34t30.5 -17q32 -11 109 -15.5t209 -4.5
q36 0 71.5 0.5t67.5 1t58 2.5t43 5q16 3 22 9.5t6 20.5q0 9 -8 16t-23 9q-16 2 -37 3.5t-49.5 2t-65.5 1t-85 0.5h-367z" />
    <glyph glyph-name="seven" unicode="7" horiz-adv-x="1180" 
d="M539 350q26 16 62 33t68 31q38 16 78 31l-2 14q-51 -2 -100 -3q-42 -1 -90.5 -1.5t-86.5 -0.5h-448v226h1140v-218l-717 -462h-413v22z" />
    <glyph glyph-name="eight" unicode="8" horiz-adv-x="1218" 
d="M1173 202q0 -111 -95 -157q-27 -13 -72 -24t-105 -18.5t-134 -12t-158 -4.5t-157.5 4t-134 12t-106 18.5t-71.5 24.5q-95 48 -95 157q0 54 25.5 90.5t70.5 60.5v3q-32 21 -49 49t-17 73q0 56 27.5 94t75.5 61q27 13 70 24t98.5 19t122 12.5t140.5 4.5q73 0 140 -4.5
t123 -12t99 -19t69 -24.5q48 -24 75.5 -61.5t27.5 -93.5q0 -45 -17.5 -73t-48.5 -49v-3q45 -24 70.5 -60.5t25.5 -90.5zM915 225q0 8 -5 14.5t-19 8.5q-10 2 -42 3.5t-73.5 2.5t-86 1.5t-80.5 0.5t-80.5 -0.5t-85.5 -1.5t-73.5 -2.5t-42.5 -3.5q-14 -2 -19 -8.5t-5 -14.5
t5 -15.5t19 -9.5q10 -2 38.5 -4.5t67.5 -4t84.5 -2.5t91.5 -1t92 1t85 2.5t67 4t38 4.5q14 2 19 9.5t5 15.5zM333 454q0 -8 5 -14.5t19 -8.5q10 -2 41 -3.5t69.5 -2.5t77 -1h64.5h64t77 1t69 2.5t42 3.5q14 2 19 8.5t5 14.5t-5 13.5t-19 9.5q-11 3 -34.5 5.5t-56.5 4.5
t-74 3.5t-87 1.5t-87 -1.5t-74.5 -4t-57 -5t-33.5 -4.5q-14 -3 -19 -9t-5 -14z" />
    <glyph glyph-name="nine" unicode="9" horiz-adv-x="1248" 
d="M902 226q25 13 35 40l-4 2q-46 -7 -105 -12q-51 -5 -121 -8t-156 -3q-113 0 -205.5 6t-158.5 22q-142 34 -142 173q0 61 30 107.5t83 74.5q30 16 73.5 28t97 20.5t115 13t127.5 4.5q92 0 164.5 -4.5t131 -14t105.5 -24.5t88 -36q67 -35 105 -102t38 -160
q0 -90 -29 -163.5t-96 -115.5q-72 -45 -195.5 -66.5t-311.5 -21.5q-64 0 -129 3t-126.5 8.5t-117 13t-100.5 15.5v195q54 -8 107.5 -14t110.5 -10.5t120 -6.5t135 -2q59 0 111.5 2.5t95.5 7t74.5 12t49.5 16.5zM329 421q8 -2 32 -3t57 -2.5t72.5 -2t80.5 -0.5h367
q-8 28 -21.5 40.5t-33.5 18.5q-32 10 -106 15t-206 5q-37 0 -75 -1t-71 -2.5t-59 -4.5t-38 -6q-16 -5 -20.5 -13.5t-4.5 -17.5q0 -21 26 -26z" />
    <glyph glyph-name="colon" unicode=":" horiz-adv-x="400" 
d="M56 83q0 41 33 65.5t111 24.5t111 -24.5t33 -65.5q0 -42 -33 -67.5t-111 -25.5t-111 25.5t-33 67.5zM56 400q0 41 33 65.5t111 24.5t111 -24.5t33 -65.5q0 -42 -33 -67.5t-111 -25.5t-111 25.5t-33 67.5z" />
    <glyph glyph-name="semicolon" unicode=";" horiz-adv-x="400" 
d="M152 -13v6q-52 8 -74 31.5t-22 58.5q0 41 33 65.5t111 24.5t111 -24.5t33 -65.5q0 -45 -17 -78t-49 -73l-42 -52h-125v14zM56 400q0 41 33 65.5t111 24.5t111 -24.5t33 -65.5q0 -42 -33 -67.5t-111 -25.5t-111 25.5t-33 67.5z" />
    <glyph glyph-name="less" unicode="&#x3c;" 
d="M709 322q-25 -5 -68.5 -9.5t-87.5 -8.5q-51 -4 -108 -9v-10q57 -5 108 -9q22 -2 44.5 -4.5t43.5 -4.5t38.5 -4.5t29.5 -4.5l341 -57v-185l-900 188v172l900 188v-185z" />
    <glyph glyph-name="equal" unicode="=" 
d="M150 92v178h900v-178h-900zM150 350v178h900v-178h-900z" />
    <glyph glyph-name="greater" unicode="&#x3e;" 
d="M150 379v185l900 -188v-172l-900 -188v185l341 57q12 2 29.5 4.5t38.5 4.5t43.5 4.5t44.5 4.5q51 4 108 9v10q-57 5 -108 9q-22 2 -44.5 4t-43.5 4.5t-38.5 5t-29.5 4.5z" />
    <glyph glyph-name="question" unicode="?" 
d="M349 83q0 41 33 65.5t111 24.5t111 -24.5t33 -65.5q0 -42 -33 -67.5t-111 -25.5t-111 25.5t-33 67.5zM612 255v-35h-238v185l22 24q65 -4 122 -7q24 -1 49.5 -2t48 -2t41.5 -1.5t31 -0.5q54 0 95 1t57 5q22 5 22 30q0 21 -23 26q-9 2 -36.5 4.5t-68 4.5t-92 3.5
t-106.5 1.5q-110 0 -199 -3t-153 -7q-75 -4 -134 -10v194q61 8 138 14q66 5 154 9.5t194 4.5q94 0 166 -3.5t125 -9t90.5 -13t62.5 -15.5q75 -24 107.5 -77t32.5 -122q0 -66 -24 -111.5t-66 -68.5q-29 -16 -78 -26t-118 -10q-42 0 -81 3t-70 7q-36 4 -68 10z" />
    <glyph glyph-name="at" unicode="@" 
d="M915 464l-32 -169q-8 -38 4.5 -54.5t46.5 -16.5q42 0 62 26t20 70q0 41 -21 83.5t-54 67.5q-50 38 -131.5 60.5t-209.5 22.5q-65 0 -116.5 -6.5t-93 -18t-73 -27t-56.5 -33.5q-35 -26 -60 -75t-25 -124t24 -125t59 -76q25 -18 56 -33t74 -26t99.5 -17.5t131.5 -6.5
q106 0 187 7.5t138 16.5q66 11 115 25l20 -128q-44 -18 -110 -31q-57 -11 -143 -20.5t-207 -9.5q-173 0 -284.5 31t-176.5 78q-30 22 -56 53t-45.5 70.5t-30.5 87.5t-11 104t11.5 103.5t31 87t45.5 70t56 52.5q66 48 176 79.5t264 31.5t265 -30.5t178 -78.5
q29 -21 53.5 -50.5t42 -64t27.5 -73t10 -77.5q0 -79 -28.5 -132t-73.5 -80q-32 -19 -83.5 -30.5t-109.5 -11.5q-83 0 -129 17.5t-65 39.5h-3q-42 -29 -89 -43t-108 -14q-65 0 -109.5 14t-70.5 36q-24 20 -40 51.5t-16 70.5q0 25 5 52t16 52t28 46.5t42 37.5q19 12 39 21
t43.5 15t52.5 9t65 3q53 0 99.5 -13t75.5 -32h4l28 35h166zM546 231q37 0 72 10t54 24l6 33q-17 3 -46 7t-59 4q-44 0 -62 -3.5t-27 -7.5q-10 -5 -15.5 -15t-5.5 -21q0 -7 4 -13.5t12 -9.5q7 -3 22.5 -5.5t44.5 -2.5z" />
    <glyph glyph-name="A" unicode="A" horiz-adv-x="1420" 
d="M980 99h-541l-87 -99h-340v12l594 668h206l596 -668v-12h-340zM587 267h245l-4 5q-21 23 -41 48t-37 46q-19 24 -36 47h-8q-17 -23 -36 -47q-17 -21 -37.5 -46t-40.5 -48z" />
    <glyph glyph-name="B" unicode="B" horiz-adv-x="1272" 
d="M60 0v680h875q90 0 146.5 -16t89 -42.5t44.5 -60t12 -69.5q0 -46 -16 -77t-47 -52v-6q38 -20 62 -56.5t24 -87.5q0 -47 -16 -86t-53.5 -67t-100 -44t-156.5 -16h-864zM338 192h565q38 0 53.5 8t15.5 26t-15.5 24t-53.5 6h-565v-64zM338 424h546q37 0 51 7t14 25
q0 15 -13 23.5t-52 8.5h-546v-64z" />
    <glyph glyph-name="C" unicode="C" horiz-adv-x="1288" 
d="M1243 65q-44 -13 -109.5 -27t-141.5 -25.5t-157.5 -19t-157.5 -7.5q-98 0 -172.5 5t-133 15t-103 25t-81.5 35q-69 37 -105.5 103t-36.5 163q0 48 10.5 87.5t29.5 71t46 57.5t61 47q32 20 77.5 38t105.5 31.5t135 21.5t167 8q96 0 180.5 -7.5t155.5 -18.5t129 -24.5
t101 -26.5l-46 -206q-129 28 -259.5 42.5t-260.5 14.5q-100 0 -177 -11t-117 -28q-33 -15 -44.5 -39.5t-11.5 -57.5t14 -56.5t47 -35.5q44 -16 114 -22t175 -6q60 0 129.5 5.5t140 14t138 19.5t121.5 22z" />
    <glyph glyph-name="D" unicode="D" horiz-adv-x="1363" 
d="M60 680h616q100 0 179 -5.5t140.5 -16t107 -26.5t78.5 -37q68 -43 102.5 -103.5t34.5 -153.5q0 -98 -37.5 -161.5t-99.5 -101.5q-35 -21 -77.5 -35.5t-98 -23t-125.5 -12.5t-159 -4h-661v680zM338 454v-228h373q106 0 167 4t92 15q33 13 49 35t16 58q0 65 -67 92
q-42 17 -115 20.5t-187 3.5h-328z" />
    <glyph glyph-name="E" unicode="E" horiz-adv-x="1252" 
d="M338 251v-59h869v-192h-1147v680h1147v-192h-869v-59h823v-178h-823z" />
    <glyph glyph-name="F" unicode="F" horiz-adv-x="1207" 
d="M338 170v-170h-278v680h1125v-226h-847v-82h801v-202h-801z" />
    <glyph glyph-name="G" unicode="G" horiz-adv-x="1348" 
d="M485 415h818v-354q-44 -13 -111.5 -26t-147 -24t-166.5 -18t-171 -7q-99 0 -177 4t-140 13t-110.5 24t-89.5 37q-69 36 -108 102.5t-39 161.5q0 96 40.5 161t103.5 103q76 46 203 74t317 28q90 0 175 -4.5t160 -11.5t135.5 -15t100.5 -15l-29 -201q-69 8 -135 14.5
t-132.5 11t-134.5 7t-140 2.5q-248 0 -327 -44q-36 -20 -45.5 -50.5t-9.5 -59.5q0 -26 12 -55.5t47 -45.5q38 -17 114.5 -23t208.5 -6q37 0 78.5 1t83.5 3t82 5t74 7v33h-540v168z" />
    <glyph glyph-name="H" unicode="H" horiz-adv-x="1335" 
d="M1275 0h-278v211h-659v-211h-278v680h278v-243h659v243h278v-680z" />
    <glyph glyph-name="I" unicode="I" horiz-adv-x="398" 
d="M338 0h-278v680h278v-680z" />
    <glyph glyph-name="J" unicode="J" horiz-adv-x="1145" 
d="M1085 328q0 -50 -7.5 -91t-24 -74t-44.5 -59t-68 -46q-35 -17 -81 -30.5t-106 -22.5t-136 -14t-171 -5q-54 0 -112.5 3t-115 8t-107.5 12t-90 15v213q46 -5 100.5 -9.5t111.5 -8t114 -5.5t109 -2q58 0 103 2.5t79.5 7t60.5 10.5t48 14q35 13 47 36t12 60v338h278v-352z
" />
    <glyph glyph-name="K" unicode="K" horiz-adv-x="1333" 
d="M1291 650l-606 -295v-5l636 -320v-30h-489l-478 240h-16v-240h-278v680h278v-234h16l480 234h457v-30z" />
    <glyph glyph-name="L" unicode="L" horiz-adv-x="1087" 
d="M338 226h727v-226h-1005v680h278v-454z" />
    <glyph glyph-name="M" unicode="M" horiz-adv-x="1426" 
d="M1088 334h-3l-366 -303h-12l-366 303h-3v-334h-278v680h233l419 -347h2l419 347h233v-680h-278v334z" />
    <glyph glyph-name="N" unicode="N" horiz-adv-x="1335" 
d="M338 366v-366h-278v680h218l719 -366v366h278v-680h-217z" />
    <glyph glyph-name="O" unicode="O" horiz-adv-x="1393" 
d="M45 340q0 51 8.5 90.5t26 70.5t43.5 54.5t61 42.5q75 42 203 69t309 27q182 0 310.5 -27t203.5 -69q34 -19 60 -42.5t43 -54.5t26 -70.5t9 -90.5t-9 -90.5t-26 -70.5t-43 -54.5t-60 -42.5q-75 -42 -203.5 -69t-310.5 -27q-181 0 -309 27t-203 69q-35 19 -61.5 42.5
t-43.5 54.5t-25.5 70.5t-8.5 90.5zM327 340q0 -39 16.5 -61.5t49.5 -36.5q19 -8 51.5 -13.5t72.5 -9t86 -5.5t93 -2q48 0 94 2t86 5.5t72 9t52 13.5q34 14 50 36.5t16 61.5t-16.5 61.5t-49.5 35.5q-20 8 -52 14t-72 9.5t-86 5.5t-94 2q-47 0 -93 -2t-86 -5.5t-72.5 -9.5
t-51.5 -14q-33 -13 -49.5 -35.5t-16.5 -61.5z" />
    <glyph glyph-name="P" unicode="P" horiz-adv-x="1257" 
d="M60 680h801q104 0 174.5 -18t113 -53t60.5 -85.5t18 -115.5q0 -59 -20 -107t-64 -81.5t-113.5 -51.5t-168.5 -18h-523v-150h-278v680zM338 454v-102h499q35 0 56 4t32.5 11t15.5 16t4 19q0 12 -5 21.5t-17 16t-33 10.5t-53 4h-499z" />
    <glyph glyph-name="Q" unicode="Q" horiz-adv-x="1394" 
d="M45 340q0 51 8.5 90.5t26 70.5t43.5 54.5t61 42.5q75 42 203 69t309 27q182 0 310.5 -27t203.5 -69q34 -19 60 -42.5t43 -54.5t26 -70.5t9 -90.5t-9 -90.5t-26 -70.5t-43 -54.5t-60 -42.5q-16 -9 -33 -16.5t-37 -15.5v-1l244 -154v-9h-345l-169 108q-41 -4 -84 -6t-90 -2
q-181 0 -309 27t-203 69q-35 19 -61.5 42.5t-43.5 54.5t-25.5 70.5t-8.5 90.5zM327 340q0 -39 16.5 -61.5t49.5 -36.5q19 -8 51.5 -13.5t72.5 -9t86 -5.5t93 -2q48 0 94 2t86 5.5t72 9t52 13.5q34 14 50 36.5t16 61.5t-16.5 61.5t-49.5 35.5q-20 8 -52 14t-72 9.5t-86 5.5
t-94 2q-47 0 -93 -2t-86 -5.5t-72.5 -9.5t-51.5 -14q-33 -13 -49.5 -35.5t-16.5 -61.5z" />
    <glyph glyph-name="R" unicode="R" horiz-adv-x="1262" 
d="M60 680h788q118 0 192.5 -20t115.5 -55.5t56 -83t15 -101.5q0 -89 -57.5 -146t-172.5 -80v-3q8 -6 17 -11q8 -5 17 -11t17 -12l202 -148v-9h-381l-246 183h-285v-183h-278v680zM338 454v-69h530q47 0 62 8.5t15 26.5q0 15 -15 24.5t-62 9.5h-530z" />
    <glyph glyph-name="S" unicode="S" horiz-adv-x="1348" 
d="M991 241q-49 3 -106.5 3.5t-139.5 0.5q-120 0 -220.5 3.5t-179.5 10t-133 15t-81 18.5q-26 9 -42.5 25t-26.5 36t-13.5 43t-3.5 48q0 74 33.5 120t108.5 74q35 12 79 22.5t102 18t131.5 11.5t167.5 4q87 0 173.5 -5t165 -13.5t143.5 -18t108 -18.5l-30 -192
q-138 23 -282 34t-278 11q-121 0 -196.5 -3.5t-117.5 -11.5q-26 -5 -26 -20q0 -8 6.5 -12.5t23.5 -6.5q12 -2 40.5 -2.5t64 -0.5h74.5h74q28 0 69.5 -0.5t91 -2t103 -4t107 -7t103 -11t89.5 -15.5q41 -9 66.5 -24t39.5 -35.5t19 -45t5 -53.5q0 -34 -4 -62.5t-14.5 -51.5
t-29 -41t-47.5 -31q-36 -17 -91.5 -29t-123 -20t-142 -12t-149.5 -4q-105 0 -203 5t-182 13.5t-151 18.5t-110 20l26 188q56 -8 127 -15.5t151.5 -13.5t167.5 -10t174 -4q66 0 113.5 1t81.5 3t57 4.5t40 5.5t22 8.5t5 13.5t-6 12t-24 5z" />
    <glyph glyph-name="T" unicode="T" horiz-adv-x="1226" 
d="M12 454v226h1202v-226h-462v-454h-278v454h-462z" />
    <glyph glyph-name="U" unicode="U" horiz-adv-x="1336" 
d="M998 680h278v-410q0 -48 -39 -98.5t-115.5 -91.5t-190 -67.5t-263.5 -26.5t-263.5 26.5t-190 67.5t-115.5 91.5t-39 98.5v410h278v-348q0 -58 86 -89t244 -31t244 31t86 89v348z" />
    <glyph glyph-name="V" unicode="V" horiz-adv-x="1344" 
d="M671 365h2l297 315h362v-12l-647 -680h-26l-647 680v12h362z" />
    <glyph glyph-name="W" unicode="W" horiz-adv-x="1898" 
d="M1529 680h357v-12l-613 -680h-25l-298 324h-2l-298 -324h-25l-613 680v12h357l277 -308h2l283 308h36l283 -308h2z" />
    <glyph glyph-name="X" unicode="X" horiz-adv-x="1426" 
d="M955 344v-1l459 -334v-9h-436l-264 200h-2l-264 -200h-436v9l459 334v1l-448 327v9h435l254 -193h2l254 193h435v-9z" />
    <glyph glyph-name="Y" unicode="Y" horiz-adv-x="1284" 
d="M641 467h2l237 213h392v-10l-491 -440v-230h-278v230l-491 440v10h392z" />
    <glyph glyph-name="Z" unicode="Z" horiz-adv-x="1341" 
d="M40 111l476 273q26 15 57 30t58 27l63 28l-1 6q-45 -3 -91 -6q-39 -2 -85 -3.5t-84 -1.5h-370v216h1238v-112l-476 -273q-24 -14 -56 -29t-61 -28q-33 -15 -68 -30l2 -6q39 3 78 7q33 2 69 4.5t63 2.5h449v-216h-1261v111z" />
    <glyph glyph-name="bracketleft" unicode="[" horiz-adv-x="461" 
d="M45 780h396v-138h-180v-674h180v-138h-396v950z" />
    <glyph glyph-name="backslash" unicode="\" horiz-adv-x="599" 
d="M579 -80v-20h-186l-353 780v20h186z" />
    <glyph glyph-name="bracketright" unicode="]" horiz-adv-x="461" 
d="M416 -170h-396v138h180v674h-180v138h396v-950z" />
    <glyph glyph-name="asciicircum" unicode="^" horiz-adv-x="800" 
d="M88 360v16l254 304h117l253 -304v-16h-220l-91 123h-2l-92 -123h-219z" />
    <glyph glyph-name="underscore" unicode="_" horiz-adv-x="800" 
d="M800 -250h-800v178h800v-178z" />
    <glyph glyph-name="grave" unicode="`" horiz-adv-x="600" 
d="M486 630v-20h-215l-216 120v40h295z" />
    <glyph glyph-name="a" unicode="a" horiz-adv-x="939" 
d="M668 41q-32 -12 -70.5 -22.5t-80 -17.5t-84 -11t-81.5 -4q-85 0 -142.5 9.5t-89.5 24.5q-33 16 -56.5 48t-23.5 86q0 45 19.5 77.5t52.5 50.5q37 20 101.5 31t151.5 11t156.5 -6t111.5 -13l3 1v14q0 10 -7 18.5t-31 13.5q-26 6 -83 11t-125 5q-107 0 -177.5 -9.5
t-114.5 -18.5l-27 176q12 3 45.5 9t80 11.5t102 9.5t111.5 4q238 0 361 -55t123 -161v-334h-198l-24 41h-4zM389 154q72 0 138 5.5t109 15.5v19q-2 0 -21.5 1t-52.5 2t-77.5 2t-95.5 1q-21 0 -44.5 -1t-34.5 -5q-12 -5 -12 -16q0 -14 13 -20q6 -2 23.5 -3t54.5 -1z" />
    <glyph glyph-name="b" unicode="b" horiz-adv-x="1043" 
d="M303 516h5q10 3 37 8.5t65.5 11.5t86.5 10t100 4q116 0 194 -19.5t125 -55.5t67 -87t20 -114q0 -59 -19 -111t-64.5 -90.5t-122 -60.5t-191.5 -22q-52 0 -104 6t-96 15t-77 19t-48 18h-10l-28 -48h-198v750h258v-234zM745 272q0 16 -8.5 29t-31 22.5t-61 15t-97.5 5.5
q-51 0 -95 -3.5t-77 -7.5q-39 -5 -72 -11v-104q40 -7 84 -11q38 -5 83.5 -8t91.5 -3q55 0 91 5t56 14.5t28 24t8 32.5z" />
    <glyph glyph-name="c" unicode="c" horiz-adv-x="930" 
d="M905 35q-72 -17 -175.5 -32t-228.5 -15q-63 0 -113.5 3t-92.5 9.5t-76.5 17t-64.5 25.5q-54 28 -84 82.5t-30 131.5q0 80 30 132.5t84 87.5q26 16 58 30t73.5 24t94.5 15.5t121 5.5q127 0 231 -15.5t173 -34.5l-37 -184q-64 8 -158.5 18t-208.5 10q-73 0 -111.5 -5.5
t-59.5 -16.5q-18 -9 -25 -24t-7 -34q0 -22 7.5 -34t22.5 -20q17 -9 57 -13.5t116 -4.5q102 0 191.5 11.5t177.5 23.5z" />
    <glyph glyph-name="d" unicode="d" horiz-adv-x="1043" 
d="M450 550q39 0 81 -3t80.5 -8t70.5 -12.5t52 -16.5h6v240h258v-750h-198l-22 41h-8q-66 -26 -149 -38.5t-174 -12.5q-108 0 -193 21t-126 55q-36 29 -62 79.5t-26 124.5t27 123.5t64 78.5q44 35 127.5 56.5t191.5 21.5zM504 196q24 0 59.5 2.5t70.5 6.5t64.5 8.5t41.5 8.5
v98q-10 4 -35 8t-58.5 7.5t-71 6t-71.5 2.5q-57 0 -103 -4.5t-63 -11.5q-40 -15 -40 -58t38 -58q18 -8 62.5 -12t105.5 -4z" />
    <glyph glyph-name="e" unicode="e" horiz-adv-x="978" 
d="M298 200v-5q0 -22 26 -31q11 -4 63 -7t140 -3q61 0 114 1t99 3.5t86.5 5t78.5 5.5l7 -149q-50 -10 -146 -22t-245 -12q-61 0 -117 3.5t-103.5 10.5t-85 17.5t-61.5 24.5q-53 31 -83.5 82.5t-30.5 140.5q0 76 27 128t81 87q28 18 67 31.5t84.5 22t96.5 12.5t104 4
q115 0 194 -12t124 -29q120 -47 120 -163q0 -32 -5.5 -72.5t-13.5 -73.5h-621zM298 328h410q0 3 1 6q0 2 0.5 5t0.5 5q0 20 -28 27q-18 5 -62 8t-107 3q-79 0 -127.5 -6t-63.5 -13q-24 -11 -24 -31v-4z" />
    <glyph glyph-name="f" unicode="f" horiz-adv-x="900" 
d="M20 408h104v44q0 54 21.5 98t73 75t137.5 48t214 17q43 0 88 -2.5t86.5 -7t76.5 -10.5t59 -13l-30 -190q-10 1 -34 4t-58 6t-75.5 5t-85.5 2q-65 0 -106.5 -3.5t-65.5 -10t-33.5 -17t-9.5 -25.5v-20h468v-206h-468v-202h-258v202h-104v206z" />
    <glyph glyph-name="g" unicode="g" horiz-adv-x="1003" 
d="M75 345q0 51 25.5 91.5t67.5 64.5q48 26 120 37.5t186 11.5q48 0 88 -2.5t74 -7.5h307v-155l-72 -13q1 -6 1.5 -13t0.5 -14q0 -56 -24 -92t-66 -59q-47 -26 -121.5 -40t-187.5 -14q-73 0 -129.5 6t-99.5 17q-7 -19 -7 -30q0 -8 5 -14.5t18 -10.5t36.5 -6t60.5 -2h347
q139 0 198.5 -41t59.5 -121q0 -55 -21.5 -97.5t-78 -71.5t-154.5 -44t-251 -15q-122 0 -202.5 10.5t-128.5 30t-67.5 45.5t-19.5 58q0 24 11 52t25 48h80l1 7q-60 15 -88.5 44t-28.5 77q0 70 70 156q-35 44 -35 107zM705 -80q0 22 -31 22h-286q-25 0 -47.5 0.5t-42.5 1.5
v-36q0 -10 8.5 -15t18.5 -7q6 -2 19 -3t31 -2.5t39.5 -2t43.5 -0.5q30 0 60 0.5t56.5 2t48 3t35.5 3.5q30 5 38.5 13.5t8.5 19.5zM333 345q0 -8 4 -15.5t15 -12.5q16 -6 49 -7.5t73 -1.5t72.5 1.5t49.5 7.5q11 5 15 12.5t4 15.5q0 9 -4 16t-15 12q-17 6 -49.5 7.5t-72.5 1.5
t-73 -1.5t-49 -7.5q-19 -7 -19 -28z" />
    <glyph glyph-name="h" unicode="h" horiz-adv-x="1004" 
d="M701 0v268q0 16 -7 29.5t-26.5 24t-54 16.5t-90.5 6q-44 0 -84 -3t-70 -7q-36 -4 -66 -10v-324h-258v750h258v-235h5q38 11 106.5 23t158.5 12q114 0 188.5 -20t118.5 -55.5t61.5 -84.5t17.5 -108v-282h-258z" />
    <glyph glyph-name="i" unicode="i" horiz-adv-x="348" 
d="M303 0h-258v540h258v-540zM30 693q0 41 33 65.5t111 24.5t111 -24.5t33 -65.5q0 -42 -33 -67.5t-111 -25.5t-111 25.5t-33 67.5z" />
    <glyph glyph-name="j" unicode="j" horiz-adv-x="348" 
d="M45 540h258v-584q0 -53 -22 -93.5t-62.5 -67.5t-96.5 -41t-123 -14q-27 0 -54.5 1.5t-51.5 3.5t-44 5t-32 6l10 186q24 -2 55 -4t57 -2q32 0 49 3t27 8q17 8 23.5 18t6.5 31v544zM30 693q0 41 33 65.5t111 24.5t111 -24.5t33 -65.5q0 -42 -33 -67.5t-111 -25.5t-111 25.5
t-33 67.5z" />
    <glyph glyph-name="k" unicode="k" horiz-adv-x="1050" 
d="M303 359h30l318 181h377v-21l-407 -231v-3l417 -254v-31h-372l-334 203h-29v-203h-258v750h258v-391z" />
    <glyph glyph-name="l" unicode="l" horiz-adv-x="348" 
d="M303 0h-258v750h258v-750z" />
    <glyph glyph-name="m" unicode="m" horiz-adv-x="1340" 
d="M1037 0v278q0 29 -22 47.5t-73 18.5q-27 0 -52.5 -3t-45.5 -7q-24 -4 -45 -10v-324h-258v278q0 29 -22 47.5t-73 18.5q-27 0 -52.5 -3t-45.5 -7q-24 -4 -45 -10v-324h-258v540h198l29 -50h5q25 14 49 25.5t50 19t56 11.5t68 4q87 0 144.5 -21t92.5 -58h5q24 16 48 30.5
t53.5 25t66.5 17t86 6.5q84 0 141.5 -20t92.5 -55.5t50 -84.5t15 -108v-282h-258z" />
    <glyph glyph-name="n" unicode="n" horiz-adv-x="1004" 
d="M701 0v268q0 16 -7 29.5t-26.5 24t-54 16.5t-90.5 6q-43 0 -82.5 -3t-70.5 -7q-36 -4 -67 -10v-324h-258v540h198l29 -50h5q25 13 58 24t71.5 19t81 12.5t85.5 4.5q114 0 188.5 -20t118.5 -55.5t61.5 -84.5t17.5 -108v-282h-258z" />
    <glyph glyph-name="o" unicode="o" horiz-adv-x="1008" 
d="M40 270q0 77 27.5 125t75.5 80q54 33 143.5 54t217.5 21t218 -20t143 -55q48 -32 75.5 -80t27.5 -125t-27.5 -125t-75.5 -80q-53 -35 -143 -55t-218 -20t-218 20.5t-143 54.5q-48 32 -75.5 80t-27.5 125zM298 270q0 -23 10.5 -36t28.5 -21q10 -5 28 -8t40.5 -5t47.5 -3
t51 -1q25 0 50.5 1t48 3t40 5t28.5 8q18 8 28.5 21t10.5 36t-10.5 36t-28.5 21q-11 4 -28.5 7.5t-40 5.5t-48 3t-50.5 1q-26 0 -51 -1t-47.5 -3t-40.5 -5.5t-28 -7.5q-18 -8 -28.5 -21t-10.5 -36z" />
    <glyph glyph-name="p" unicode="p" horiz-adv-x="1043" 
d="M272 490h5q17 9 49 19.5t74.5 19.5t93 15t103.5 6q125 0 204 -23t124 -61.5t61.5 -89t16.5 -104.5q0 -59 -19 -110.5t-64.5 -89.5t-122 -60t-191.5 -22q-46 0 -94 4.5t-89.5 10.5t-72.5 12t-43 10l-4 -2v-275h-258v790h198zM745 272q0 17 -7.5 30.5t-28 22.5t-56 14
t-91.5 5t-103 -3.5t-82 -7.5q-40 -5 -74 -11v-104q40 -7 84 -11q38 -5 83.5 -8t91.5 -3q55 0 91 5t56 14.5t28 24t8 32.5z" />
    <glyph glyph-name="q" unicode="q" horiz-adv-x="1043" 
d="M740 20l-5 3q-56 -16 -122.5 -24.5t-154.5 -8.5q-110 0 -195.5 21t-130.5 55q-42 31 -67 80t-25 124t26 125t68 81q45 33 129.5 53.5t194.5 20.5q114 0 186 -16.5t114 -39.5h5l27 46h208v-790h-258v270zM519 196q25 0 59 2.5t66 6t58.5 7.5t37.5 7v103q-11 3 -37.5 7
t-58.5 7t-66 5.5t-59 2.5t-51.5 -1t-51 -3t-45.5 -5t-34 -8q-18 -7 -28.5 -21.5t-10.5 -35.5t11 -35t29 -21q13 -5 34.5 -8.5t46 -5.5t50.5 -3t50 -1z" />
    <glyph glyph-name="r" unicode="r" horiz-adv-x="688" 
d="M664 325q-27 4 -73 8.5t-95 4.5q-44 0 -79 -3.5t-61 -7.5q-30 -5 -53 -11v-316h-258v540h198l29 -82h5l20 50q16 7 38 15t51.5 15t68 11.5t88.5 4.5q15 0 33.5 -1t37 -3t35.5 -4t29 -5z" />
    <glyph glyph-name="s" unicode="s" horiz-adv-x="924" 
d="M590 196q-7 0 -19 0.5t-27 1t-31 0.5h-31q-90 0 -151 2t-103 6t-69 10.5t-48 14.5q-42 17 -56.5 50t-14.5 70q0 59 26.5 99.5t86.5 62.5q22 8 48.5 15t63.5 12t87.5 8t119.5 3q48 0 100 -2.5t101.5 -7t94.5 -11t80 -13.5l-24 -161q-114 16 -200 23t-158 7q-19 0 -39 -0.5
t-38.5 -1t-33.5 -2t-24 -2.5q-14 -2 -18.5 -8.5t-4.5 -14.5q0 -9 5.5 -14.5t19.5 -5.5t50 0.5t73 0.5q27 0 67.5 -1t85.5 -4t89.5 -8.5t79.5 -14.5q61 -15 83.5 -46.5t22.5 -79.5q0 -54 -17 -92.5t-59 -59.5q-24 -12 -61 -21t-82 -15t-95 -9t-101 -3q-74 0 -139.5 4
t-119.5 10t-94.5 13t-65.5 13l18 157q85 -14 184 -22.5t219 -8.5h32.5t34 0.5t31 1.5t23.5 2q14 2 19 8t5 15q0 8 -5.5 13t-20.5 6z" />
    <glyph glyph-name="t" unicode="t" horiz-adv-x="918" 
d="M20 540h104v102l198 38h60v-140h489v-206h-489v-84q0 -15 9 -25t32.5 -16.5t63 -9.5t100.5 -3q39 0 80.5 3t79 7t66.5 8t41 6l24 -191q-55 -16 -139.5 -27.5t-178.5 -11.5q-134 0 -219 16.5t-133 48t-66 76t-18 101.5v102h-104v206z" />
    <glyph glyph-name="u" unicode="u" horiz-adv-x="1004" 
d="M303 540v-268q0 -18 9 -32t29.5 -24t54 -15t82.5 -5q43 0 82.5 5t71.5 11q36 7 69 17v311h258v-540h-198l-22 42h-6q-76 -29 -149.5 -40.5t-142.5 -11.5q-114 0 -190 18t-121.5 52.5t-65 84.5t-19.5 113v282h258z" />
    <glyph glyph-name="v" unicode="v" horiz-adv-x="1048" 
d="M730 540h306v-24l-422 -516h-180l-422 516v24h306l177 -216q5 -7 10 -13.5t9 -12.5q4 -7 8 -13h4q3 6 7 12q4 5 8.5 12t11.5 15z" />
    <glyph glyph-name="w" unicode="w" horiz-adv-x="1374" 
d="M492 0h-83l-397 514v26h292l164 -215l185 215h68l185 -215l164 215h292v-26l-397 -514h-83l-195 230z" />
    <glyph glyph-name="x" unicode="x" horiz-adv-x="1066" 
d="M732 276v-6l322 -252v-18h-363l-158 136l-158 -136h-363v18l322 252v6l-317 248v16h367l149 -130l149 130h366v-16z" />
    <glyph glyph-name="y" unicode="y" horiz-adv-x="1121" 
d="M152 -180v11l273 299l-413 382v28h342l241 -224l204 224h310v-28l-631 -692h-326z" />
    <glyph glyph-name="z" unicode="z" horiz-adv-x="938" 
d="M40 0v116l287 171q12 7 30.5 16t36.5 17q21 9 44 18v6h-378v196h838v-116l-281 -167q-42 -25 -79 -41q-20 -9 -39 -16v-4h399v-196h-858z" />
    <glyph glyph-name="braceleft" unicode="{" horiz-adv-x="560" 
d="M20 221v148h120q36 0 36 38v177q0 33 11 61.5t33 49.5t55.5 33t78.5 12h186v-138h-109q-20 0 -29.5 -12t-9.5 -33v-133q0 -46 -18.5 -74t-55.5 -43v-24q37 -15 55.5 -43t18.5 -74v-133q0 -21 9.5 -33t29.5 -12h109v-138h-186q-45 0 -78.5 12t-55.5 33t-33 49.5t-11 61.5
v177q0 38 -36 38h-120z" />
    <glyph glyph-name="bar" unicode="|" horiz-adv-x="600" 
d="M211 800h178v-1020h-178v1020z" />
    <glyph glyph-name="braceright" unicode="}" horiz-adv-x="560" 
d="M420 221q-36 0 -36 -38v-177q0 -33 -11 -61.5t-33 -49.5t-55.5 -33t-78.5 -12h-186v138h109q20 0 29.5 12t9.5 33v133q0 46 18.5 74t55.5 43v24q-37 15 -55.5 43t-18.5 74v133q0 21 -9.5 33t-29.5 12h-109v138h186q45 0 78.5 -12t55.5 -33t33 -49.5t11 -61.5v-177
q0 -38 36 -38h120v-148h-120z" />
    <glyph glyph-name="asciitilde" unicode="~" horiz-adv-x="900" 
d="M80 164q0 76 9.5 131t31.5 91t58.5 53.5t90.5 17.5q42 0 86.5 -16.5t86.5 -36t79 -36t66 -16.5q32 0 43 27t11 78h178q0 -76 -9.5 -131t-31.5 -91t-58.5 -53.5t-90.5 -17.5q-41 0 -85.5 16.5t-86.5 36t-80 36t-66 16.5q-34 0 -44 -27t-10 -78h-178z" />
    <glyph glyph-name="uni00A0" unicode="&#xa0;" horiz-adv-x="400" 
 />
    <glyph glyph-name="exclamdown" unicode="&#xa1;" horiz-adv-x="400" 
d="M106 -210q-40 0 -40 30v77q0 21 2.5 46.5t6.5 53.5t9 57t11 56q12 63 29 130h152q16 -67 29 -130q5 -27 10.5 -56t9.5 -57t6.5 -53.5t2.5 -46.5v-77q0 -30 -40 -30h-188zM344 397q0 -41 -33 -65.5t-111 -24.5t-111 24.5t-33 65.5q0 42 33 67.5t111 25.5t111 -25.5
t33 -67.5z" />
    <glyph glyph-name="cent" unicode="&#xa2;" 
d="M475 60q-123 4 -199 16.5t-122 36.5q-54 28 -84 82.5t-30 131.5q0 80 30 132.5t84 87.5q26 16 67 30t99.5 24t135.5 15.5t175 5.5q11 0 23 -0.5t25 -0.5l58 159h140v-20l-54 -147q51 -4 101.5 -9.5t95 -11.5t81 -12t59.5 -11l-30 -183q-53 4 -152.5 13.5t-226.5 14.5
l-55 -150q131 3 244.5 14t191.5 22l28 -193q-36 -8 -98.5 -16.5t-136 -16t-151 -12t-143.5 -4.5h-10l-57 -158h-140v20zM330 280q7 -3 21 -6t39.5 -5t64 -3.5t94.5 -1.5l55 152q-104 -1 -178 -7t-94 -16q-34 -17 -34 -58q0 -23 8.5 -35t23.5 -20z" />
    <glyph glyph-name="sterling" unicode="&#xa3;" 
d="M30 408h151v2q-6 19 -11 36.5t-5 39.5q0 52 31 93t101 68t160.5 37t188.5 10q113 0 215.5 -9.5t189.5 -25.5l-26 -196q-108 14 -199 21.5t-180 7.5q-78 0 -126 -4t-65 -10q-32 -11 -32 -40q0 -13 7 -30h370v-138h-351q-5 -20 -13 -35.5t-13 -22.5v-3q103 -4 201 -10.5
t174 -6.5q36 0 58 4t34.5 11.5t17 19t4.5 25.5v58h258v-96q0 -51 -12 -92.5t-46.5 -71t-95.5 -45t-158 -15.5q-72 0 -137.5 3t-129 7t-126 7t-127.5 3q-59 0 -108.5 -3.5t-84.5 -8.5q-42 -5 -75 -12l-40 192q16 5 38 9q19 4 45.5 8t61.5 8q5 11 10 30t7 37h-162v138z" />
    <glyph glyph-name="currency" unicode="&#xa4;" 
d="M401 340q0 -18 7 -32t22 -20q20 -8 59.5 -16t110.5 -8q73 0 113 7t57 16q29 14 29 53t-29 53q-9 4 -26.5 8.5t-40.5 7.5t-49.5 5t-53.5 2q-55 0 -102.5 -7.5t-68.5 -17.5q-28 -13 -28 -51zM828 94q-44 -13 -100 -19.5t-128 -6.5q-74 0 -129.5 6.5t-98.5 19.5l-102 -94
h-245v20l193 178q-33 54 -33 142q0 87 33 141l-193 179v20h245l102 -95q44 14 99.5 20.5t128.5 6.5q72 0 128 -7t100 -20l102 95h245v-20l-193 -178q33 -56 33 -142q0 -88 -33 -142l193 -178v-20h-245z" />
    <glyph glyph-name="yen" unicode="&#xa5;" 
d="M130 408h132q9 0 21.5 -1t24.5 -3q13 -2 28 -4l1 3q-13 8 -25 16q-11 7 -21.5 14.5t-18.5 14.5l-252 222v10h370l210 -185l210 185h370v-10l-253 -222q-8 -7 -19 -14.5t-22 -14.5q-12 -8 -25 -16l1 -3l28 4q11 2 24 3t23 1h133v-138h-341v-48h341v-138h-341v-84h-258v84
h-341v138h341v48h-341v138z" />
    <glyph glyph-name="brokenbar" unicode="&#xa6;" horiz-adv-x="600" 
d="M211 370v430h178v-430h-178zM389 210v-430h-178v430h178z" />
    <glyph glyph-name="section" unicode="&#xa7;" 
d="M1155 67q0 -110 -40 -179t-112 -99q-31 -13 -69.5 -22.5t-89.5 -15.5t-115.5 -8.5t-148.5 -2.5q-59 0 -121 3.5t-119.5 9t-109 13t-89.5 15.5l30 192q44 -6 97.5 -11.5t109 -10t108 -7t94.5 -2.5q40 0 84 1t84.5 2.5t73 4t49.5 5.5q14 3 20 10t6 15q0 10 -6 15.5t-24 6.5
q-12 0 -42.5 0.5t-69 1t-80 1t-75.5 0.5q-33 0 -85.5 2t-108 6t-107 9.5t-84.5 12.5q-45 10 -77 28.5t-52.5 51.5t-30.5 83.5t-10 124.5v44q0 110 40 179t112 99q31 13 69.5 22.5t89.5 15.5t115.5 8.5t148.5 2.5q59 0 121 -3.5t119.5 -9t109 -13t89.5 -15.5l-30 -192
q-44 6 -97.5 11.5t-109 10t-108 7t-94.5 2.5q-40 0 -84 -1t-84.5 -2.5t-73 -4t-49.5 -5.5q-14 -3 -20 -10t-6 -15q0 -10 6 -15.5t24 -6.5q12 0 42.5 -0.5t69 -1t79.5 -1t76 -0.5q33 0 85.5 -2t108 -6t107 -9.5t84.5 -12.5q45 -10 77 -28.5t52.5 -51.5t30.5 -83.5t10 -124.5
v-44zM388 192q30 -4 92 -6.5t140 -2.5h277v7q0 26 -17.5 36t-67.5 16q-30 4 -92 6.5t-140 2.5h-277v-7q0 -26 17.5 -36t67.5 -16z" />
    <glyph glyph-name="dieresis" unicode="&#xa8;" horiz-adv-x="800" 
d="M80 693q0 41 33 65.5t111 24.5t111 -24.5t33 -65.5q0 -42 -33 -67.5t-111 -25.5t-111 25.5t-33 67.5zM428 693q0 41 33 65.5t111 24.5t111 -24.5t33 -65.5q0 -42 -33 -67.5t-111 -25.5t-111 25.5t-33 67.5z" />
    <glyph glyph-name="copyright" unicode="&#xa9;" 
d="M20 340q0 52 9 92.5t27 72t45.5 56t63.5 44.5q66 37 174.5 61t260.5 24t261 -24t175 -61q36 -20 63 -44.5t45 -56t27 -72t9 -92.5t-9 -92.5t-27 -72t-45 -56t-63 -44.5q-66 -37 -175 -61t-261 -24t-260.5 24t-174.5 61q-36 20 -63.5 44.5t-45.5 56t-27 72t-9 92.5z
M180 340q0 -60 17 -96t52 -56q47 -27 138 -42.5t213 -15.5t213.5 15.5t138.5 42.5q34 20 51 56t17 96t-17 96t-51 56q-47 27 -138.5 42.5t-213.5 15.5t-213 -15.5t-138 -42.5q-35 -20 -52 -56t-17 -96zM898 212q-20 -4 -55.5 -9t-77 -9t-85.5 -7t-80 -3q-108 0 -168 7.5
t-93 24.5q-30 15 -47.5 44.5t-17.5 71.5q0 45 16.5 73.5t46.5 47.5q28 18 91 30.5t172 12.5q44 0 89 -3.5t85 -8t72.5 -10.5t51.5 -10l-15 -100q-18 2 -49 5t-67.5 6t-75 5t-71.5 2q-62 0 -93 -4t-42 -9q-19 -10 -19 -32q0 -13 4.5 -19.5t12.5 -10.5q5 -3 10.5 -4.5t19 -2.5
t38.5 -1.5t69 -0.5q31 0 67 1.5t72 4.5t69 6.5t57 6.5z" />
    <glyph glyph-name="ordfeminine" unicode="&#xaa;" horiz-adv-x="678" 
d="M461 367q-20 -8 -45 -14.5t-52 -11t-54.5 -7t-52.5 -2.5q-65 0 -104 6t-64 18q-20 10 -34.5 31t-14.5 53q0 26 12 45t32 30q23 14 67.5 21t123.5 7q21 0 44.5 -1t45.5 -2.5t41 -3.5t33 -4h1v13q0 6 -4 11t-19 7q-17 3 -50 6t-77 3q-87 0 -137 -5.5t-77 -10.5l-16 112
q7 2 33 5.5t61 7.5t74.5 6.5t74.5 2.5q171 0 253 -35t82 -101v-213h-160l-15 26h-2zM295 440q45 0 82 3t63 5v21h-145q-14 0 -29 -0.5t-22 -3.5q-6 -2 -6 -10q0 -9 8 -12q4 -2 15 -2.5t34 -0.5z" />
    <glyph glyph-name="guillemotleft" unicode="&#xab;" horiz-adv-x="928" 
d="M40 323l236 197h198v-33l-194 -213v-8l194 -213v-33h-198l-236 197v106zM474 323l236 197h198v-33l-194 -213v-8l194 -213v-33h-198l-236 197v106z" />
    <glyph glyph-name="logicalnot" unicode="&#xac;" 
d="M854 261h-704v178h900v-399h-196v221z" />
    <glyph glyph-name="registered" unicode="&#xae;" 
d="M20 340q0 52 9 92.5t27 72t45.5 56t63.5 44.5q66 37 174.5 61t260.5 24t261 -24t175 -61q36 -20 63 -44.5t45 -56t27 -72t9 -92.5t-9 -92.5t-27 -72t-45 -56t-63 -44.5q-66 -37 -175 -61t-261 -24t-260.5 24t-174.5 61q-36 20 -63.5 44.5t-45.5 56t-27 72t-9 92.5z
M180 340q0 -60 17 -96t52 -56q47 -27 138 -42.5t213 -15.5t213.5 15.5t138.5 42.5q34 20 51 56t17 96t-17 96t-51 56q-47 27 -138.5 42.5t-213.5 15.5t-213 -15.5t-138 -42.5q-35 -20 -52 -56t-17 -96zM565 267h-48v-73h-196v292h417q48 0 77.5 -9.5t46 -25.5t22.5 -36.5
t6 -42.5q0 -37 -20.5 -63t-71.5 -37v-2q3 -2 7 -4q3 -2 6 -4.5t7 -4.5l81 -59v-4h-234zM517 386v-29h146q19 0 25 3.5t6 11.5q0 6 -5.5 10t-25.5 4h-146z" />
    <glyph glyph-name="macron" unicode="&#xaf;" horiz-adv-x="600" 
d="M69 630v138h460v-138h-460z" />
    <glyph glyph-name="degree" unicode="&#xb0;" horiz-adv-x="730" 
d="M45 463q0 51 17 92.5t55.5 71.5t99.5 46.5t148 16.5t148 -16.5t99.5 -46.5t55.5 -71.5t17 -92.5q0 -53 -17 -96t-55.5 -73.5t-99.5 -47t-148 -16.5t-148 16.5t-99.5 47t-55.5 73.5t-17 96zM241 463q0 -12 5 -22.5t18.5 -17.5t38 -11t62.5 -4t62.5 4t38 11t18.5 17.5
t5 22.5q0 11 -5 20t-18.5 15.5t-38 10t-62.5 3.5t-62.5 -3.5t-38 -10t-18.5 -15.5t-5 -20z" />
    <glyph glyph-name="plusminus" unicode="&#xb1;" 
d="M698 381v-138h-196v138h-352v178h352v138h196v-138h352v-178h-352zM150 178h900v-178h-900v178z" />
    <glyph glyph-name="uni00B2" unicode="&#xb2;" horiz-adv-x="703" 
d="M235 541q-10 -2 -13.5 -7.5t-3.5 -12.5v-5h439v-116h-617v116q0 32 16 60.5t61 45.5q32 11 91 17.5t136 6.5q39 0 75 -0.5t50 1.5q10 1 13 4t3 8q0 9 -16 13q-10 2 -35.5 4t-82.5 2q-75 0 -144 -6t-130 -17l-20 110q24 6 59 11t75 9t81.5 6.5t78.5 2.5q155 0 232 -26
q80 -28 80 -109q0 -33 -13.5 -57.5t-38.5 -35.5q-15 -6 -32 -10t-45 -6t-71 -3t-110 -1q-17 0 -35 -0.5t-34.5 -1t-29.5 -1.5t-19 -2z" />
    <glyph glyph-name="uni00B3" unicode="&#xb3;" horiz-adv-x="700" 
d="M52 529q54 -7 106 -11q45 -4 92 -7t82 -3q49 0 78.5 2t45.5 5.5t21 8.5t5 10q0 7 -5.5 9.5t-22.5 2.5h-228v94h217q15 0 20.5 3t5.5 9q0 5 -0.5 9.5t-11.5 8.5t-37 6t-77 2q-48 0 -98 -3.5t-92 -7.5q-48 -5 -94 -11l-17 110q45 8 95 14q43 5 96 9.5t110 4.5
q86 0 144.5 -8.5t94 -24t50.5 -36.5t15 -46q0 -50 -35 -74v-3q21 -11 34.5 -29.5t13.5 -47.5t-15.5 -54.5t-53 -43.5t-101 -27.5t-158.5 -7.5q-43 0 -93.5 3.5t-95.5 8.5q-52 5 -103 13z" />
    <glyph glyph-name="acute" unicode="&#xb4;" horiz-adv-x="600" 
d="M256 770h295v-40l-236 -120h-215v20z" />
    <glyph glyph-name="mu" unicode="&#xb5;" 
d="M969 540v-260q0 -43 22.5 -63.5t82.5 -20.5q16 0 31.5 1t27.5 3q14 2 26 4l16 -192q-18 -7 -42 -11q-20 -5 -49.5 -8t-66.5 -3q-85 0 -142.5 20t-94.5 54h-8q-58 -35 -137 -54.5t-174 -19.5q-38 0 -77.5 2.5t-69.5 7.5l-1 -1v-249h-258v790h258v-268q0 -18 9 -32
t29.5 -24t54 -15t82.5 -5q46 0 87 8t71 18q35 11 65 27v291h258z" />
    <glyph glyph-name="paragraph" unicode="&#xb6;" 
d="M389 220h-41q-160 0 -231.5 57.5t-71.5 162.5q0 55 17 99t55 75.5t99.5 48.5t151.5 17h787v-206h-150v-574h-226v574h-164v-574h-226v320z" />
    <glyph glyph-name="periodcentered" unicode="&#xb7;" horiz-adv-x="400" 
d="M56 270q0 41 33 65.5t111 24.5t111 -24.5t33 -65.5q0 -42 -33 -67.5t-111 -25.5t-111 25.5t-33 67.5z" />
    <glyph glyph-name="cedilla" unicode="&#xb8;" horiz-adv-x="600" 
d="M78 -147q29 -2 62 -4q29 -2 67 -2.5t80 -0.5q26 0 41.5 1t24 3.5t11.5 5.5t3 8t-3.5 7.5t-15.5 2.5h-200l-34 29l30 97h164l-4 -43l2 -1q15 1 33 3q14 1 32.5 2t36.5 1q45 0 74 -7.5t46 -20.5t24 -31t7 -39q0 -29 -10.5 -52t-40.5 -39t-83 -24.5t-138 -8.5q-32 0 -70 2
t-70 5q-38 3 -75 7z" />
    <glyph glyph-name="uni00B9" unicode="&#xb9;" horiz-adv-x="385" 
d="M10 717l251 69h84v-386h-178v227h-1l-136 -37h-20v127z" />
    <glyph glyph-name="ordmasculine" unicode="&#xba;" horiz-adv-x="716" 
d="M40 511q0 49 18.5 80t52.5 51q36 22 97.5 35t149.5 13t149.5 -12.5t97.5 -35.5q32 -20 51.5 -51t19.5 -80t-19.5 -80t-51.5 -51q-36 -23 -97.5 -35.5t-149.5 -12.5t-149.5 12.5t-97.5 35.5q-34 20 -52.5 51t-18.5 80zM248 511q0 -24 21 -32q10 -4 34 -6.5t55 -2.5t55 2.5
t34 6.5q21 8 21 32t-21 32q-10 4 -34 6.5t-55 2.5t-55 -2.5t-34 -6.5q-21 -8 -21 -32z" />
    <glyph glyph-name="guillemotright" unicode="&#xbb;" horiz-adv-x="928" 
d="M888 217l-236 -197h-198v33l194 213v8l-194 213v33h198l236 -197v-106zM454 217l-236 -197h-198v33l194 213v8l-194 213v33h198l236 -197v-106z" />
    <glyph glyph-name="onequarter" unicode="&#xbc;" horiz-adv-x="1285" 
d="M10 611l251 69h84v-386h-178v227h-1l-136 -37h-20v127zM792 700h215v-20l-680 -700h-215v20zM1162 170h83v-116h-83v-54h-178v54h-429v86l388 246h219v-216zM819 166q13 1 25 2q11 1 23 1.5t23 0.5h94v95h-5l-99 -62q-5 -3 -14.5 -8.5t-20.5 -10.5q-12 -6 -27 -13z" />
    <glyph glyph-name="onehalf" unicode="&#xbd;" horiz-adv-x="1434" 
d="M10 611l251 69h84v-386h-178v227h-1l-136 -37h-20v127zM792 700h215v-20l-680 -700h-215v20zM966 141q-10 -2 -13.5 -7.5t-3.5 -12.5v-5h439v-116h-617v116q0 32 16 60.5t61 45.5q32 11 91 17.5t136 6.5q39 0 75 -0.5t50 1.5q10 1 13 4t3 8q0 9 -16 13q-10 2 -35.5 4
t-82.5 2q-75 0 -144 -6t-130 -17l-20 110q24 6 59 11t75 9t81.5 6.5t78.5 2.5q155 0 232 -26q80 -28 80 -109q0 -33 -13.5 -57.5t-38.5 -35.5q-15 -6 -32 -10t-45 -6t-71 -3t-110 -1q-17 0 -35 -0.5t-34.5 -1t-29.5 -1.5t-19 -2z" />
    <glyph glyph-name="threequarters" unicode="&#xbe;" horiz-adv-x="1557" 
d="M1044 700h215v-20l-680 -700h-215v20zM32 423q54 -7 106 -11q45 -4 92 -7t82 -3q49 0 78.5 2t45.5 5.5t21 8.5t5 10q0 7 -5.5 9.5t-22.5 2.5h-228v94h217q15 0 20.5 3t5.5 9q0 5 -0.5 9.5t-11.5 8.5t-37 6t-77 2q-48 0 -98 -3.5t-92 -7.5q-48 -5 -94 -11l-17 110
q45 8 95 14q43 5 96 9.5t110 4.5q86 0 144.5 -8.5t94 -24t50.5 -36.5t15 -46q0 -50 -35 -74v-3q21 -11 34.5 -29.5t13.5 -47.5t-15.5 -54.5t-53 -43.5t-101 -27.5t-158.5 -7.5q-43 0 -93.5 3.5t-95.5 8.5q-52 5 -103 13zM1434 170h83v-116h-83v-54h-178v54h-429v86l388 246
h219v-216zM1091 166q13 1 25 2q11 1 23 1.5t23 0.5h94v95h-5l-99 -62q-5 -3 -14.5 -8.5t-20.5 -10.5q-12 -6 -27 -13z" />
    <glyph glyph-name="questiondown" unicode="&#xbf;" 
d="M851 397q0 -41 -33 -65.5t-111 -24.5t-111 24.5t-33 65.5q0 42 33 67.5t111 25.5t111 -25.5t33 -67.5zM588 225v35h238v-185l-22 -24q-65 3 -122 6q-24 1 -49.5 2.5t-48.5 2.5t-41.5 1.5t-30.5 0.5q-54 0 -95 -1t-57 -5q-22 -5 -22 -30q0 -21 23 -26q9 -2 36.5 -4.5
t68 -4.5t91.5 -3.5t107 -1.5q109 0 198.5 3t153.5 7q75 4 134 10v-194q-61 -8 -138 -14q-66 -5 -154.5 -9.5t-193.5 -4.5q-94 0 -166 3.5t-125 9t-90.5 13t-62.5 15.5q-75 24 -107.5 77t-32.5 122q0 66 24 111.5t66 68.5q29 16 78 26t118 10q42 0 81 -3t70 -7q36 -4 68 -10z
" />
    <glyph glyph-name="Agrave" unicode="&#xc0;" horiz-adv-x="1420" 
d="M980 99h-541l-87 -99h-340v12l594 668h206l596 -668v-12h-340zM587 267h245l-4 5q-21 23 -41 48t-37 46q-19 24 -36 47h-8q-17 -23 -36 -47q-17 -21 -37.5 -46t-40.5 -48zM805 782v-20h-215l-216 120v40h295z" />
    <glyph glyph-name="Aacute" unicode="&#xc1;" horiz-adv-x="1420" 
d="M980 99h-541l-87 -99h-340v12l594 668h206l596 -668v-12h-340zM587 267h245l-4 5q-21 23 -41 48t-37 46q-19 24 -36 47h-8q-17 -23 -36 -47q-17 -21 -37.5 -46t-40.5 -48zM776 922h295v-40l-236 -120h-215v20z" />
    <glyph glyph-name="Acircumflex" unicode="&#xc2;" horiz-adv-x="1420" 
d="M980 99h-541l-87 -99h-340v12l594 668h206l596 -668v-12h-340zM587 267h245l-4 5q-21 23 -41 48t-37 46q-19 24 -36 47h-8q-17 -23 -36 -47q-17 -21 -37.5 -46t-40.5 -48zM616 950h195l206 -150v-40h-205l-95 50h-9l-93 -50h-205v40z" />
    <glyph glyph-name="Atilde" unicode="&#xc3;" horiz-adv-x="1420" 
d="M980 99h-541l-87 -99h-340v12l594 668h206l596 -668v-12h-340zM587 267h245l-4 5q-21 23 -41 48t-37 46q-19 24 -36 47h-8q-17 -23 -36 -47q-17 -21 -37.5 -46t-40.5 -48zM439 750v71q0 74 33.5 106.5t99.5 32.5q32 0 59.5 -7.5t48.5 -17.5l62 -29q15 -7 28 -12t23 -5
q9 0 15 5.5t6 15.5v50h168v-71q0 -74 -33.5 -106.5t-99.5 -32.5q-32 0 -59.5 7.5t-48.5 17.5l-62 29q-15 7 -28.5 12t-22.5 5t-15 -5.5t-6 -15.5v-50h-168z" />
    <glyph glyph-name="Adieresis" unicode="&#xc4;" horiz-adv-x="1400" 
d="M383 843q0 41 33 65.5t111 24.5t111 -24.5t33 -65.5q0 -42 -33 -67.5t-111 -25.5t-111 25.5t-33 67.5zM731 843q0 41 33 65.5t111 24.5t111 -24.5t33 -65.5q0 -42 -33 -67.5t-111 -25.5t-111 25.5t-33 67.5zM970 99h-541l-87 -99h-340v12l594 668h206l596 -668v-12h-340z
M577 267h245l-4 5q-21 23 -41 48t-37 46q-19 24 -36 47h-8q-17 -23 -36 -47q-17 -21 -37.5 -46t-40.5 -48z" />
    <glyph glyph-name="Aring" unicode="&#xc5;" horiz-adv-x="1420" 
d="M587 267h245l-4 5q-21 23 -41 48t-37 46q-19 24 -36 47h-8q-17 -23 -36 -47q-17 -21 -37.5 -46t-40.5 -48zM643 712q0 -14 14.5 -23t52.5 -9t52.5 9t14.5 23q0 12 -14.5 20t-52.5 8t-52.5 -8t-14.5 -20zM486 712q0 29 12.5 54t39.5 43t69.5 28.5t102.5 10.5t102.5 -10.5
t69.5 -28.5t39.5 -43t12.5 -54q0 -32 -13.5 -59t-43.5 -46l531 -595v-12h-340l-88 99h-541l-87 -99h-340v12l530 596q-29 19 -42.5 45.5t-13.5 58.5z" />
    <glyph glyph-name="AE" unicode="&#xc6;" horiz-adv-x="1988" 
d="M1154 251v-59h789v-192h-1067v99h-389l-103 -99h-372v12l694 668h1237v-192h-789v-59h743v-178h-743zM662 267h214v211h-6q-25 -28 -51 -55q-22 -23 -47 -49.5t-47 -46.5z" />
    <glyph glyph-name="Ccedilla" unicode="&#xc7;" horiz-adv-x="1288" 
d="M495 -147q29 -2 62 -4q29 -2 67 -2.5t80 -0.5q26 0 41.5 1t24 3.5t11.5 5.5t3 8t-3.5 7.5t-15.5 2.5h-200l-34 29l26 85q-69 3 -123.5 9t-99 16t-80.5 23t-67 30q-69 37 -105.5 103t-36.5 163q0 48 10.5 87.5t29.5 71t46 57.5t61 47q32 20 77.5 38t105.5 31.5t135 21.5
t167 8q96 0 180.5 -7.5t155.5 -18.5t129 -24.5t101 -26.5l-46 -206q-129 28 -259.5 42.5t-260.5 14.5q-100 0 -177 -11t-117 -28q-33 -15 -44.5 -39.5t-11.5 -57.5t14 -56.5t47 -35.5q44 -16 114 -22t175 -6q60 0 129.5 5.5t140 14t138 19.5t121.5 22l37 -208
q-41 -12 -100 -25t-128.5 -24t-144.5 -19t-147 -10l-2 -30l2 -1q15 1 33 3q14 1 32.5 2t36.5 1q45 0 74 -7.5t46 -20.5t24 -31t7 -39q0 -29 -10.5 -52t-40.5 -39t-83 -24.5t-138 -8.5q-32 0 -70 2t-70 5q-38 3 -75 7z" />
    <glyph glyph-name="Egrave" unicode="&#xc8;" horiz-adv-x="1252" 
d="M338 251v-59h869v-192h-1147v680h1147v-192h-869v-59h823v-178h-823zM817 783v-20h-215l-216 120v40h295z" />
    <glyph glyph-name="Eacute" unicode="&#xc9;" horiz-adv-x="1252" 
d="M338 251v-59h869v-192h-1147v680h1147v-192h-869v-59h823v-178h-823zM644 922h295v-40l-236 -120h-215v20z" />
    <glyph glyph-name="Ecircumflex" unicode="&#xca;" horiz-adv-x="1252" 
d="M338 251v-59h869v-192h-1147v680h1147v-192h-869v-59h823v-178h-823zM540 940h195l206 -150v-40h-205l-95 50h-9l-93 -50h-205v40z" />
    <glyph glyph-name="Edieresis" unicode="&#xcb;" horiz-adv-x="1252" 
d="M338 251v-59h869v-192h-1147v680h1147v-192h-869v-59h823v-178h-823zM349 843q0 41 33 65.5t111 24.5t111 -24.5t33 -65.5q0 -42 -33 -67.5t-111 -25.5t-111 25.5t-33 67.5zM697 843q0 41 33 65.5t111 24.5t111 -24.5t33 -65.5q0 -42 -33 -67.5t-111 -25.5t-111 25.5
t-33 67.5z" />
    <glyph glyph-name="Igrave" unicode="&#xcc;" horiz-adv-x="398" 
d="M338 0h-278v680h278v-680zM327 782v-20h-215l-216 120v40h295z" />
    <glyph glyph-name="Iacute" unicode="&#xcd;" horiz-adv-x="398" 
d="M338 0h-278v680h278v-680zM228 922h295v-40l-236 -120h-215v20z" />
    <glyph glyph-name="Icircumflex" unicode="&#xce;" horiz-adv-x="398" 
d="M338 0h-278v680h278v-680zM102 950h195l206 -150v-40h-205l-95 50h-9l-93 -50h-205v40z" />
    <glyph glyph-name="Idieresis" unicode="&#xcf;" horiz-adv-x="398" 
d="M-89 833q0 41 29.5 65.5t99.5 24.5t99.5 -24.5t29.5 -65.5q0 -42 -29.5 -67.5t-99.5 -25.5t-99.5 25.5t-29.5 67.5zM229 833q0 41 29.5 65.5t99.5 24.5t99.5 -24.5t29.5 -65.5q0 -42 -29.5 -67.5t-99.5 -25.5t-99.5 25.5t-29.5 67.5zM338 0h-278v680h278v-680z" />
    <glyph glyph-name="Eth" unicode="&#xd0;" horiz-adv-x="1393" 
d="M0 409h90v271h616q100 0 179 -5.5t140.5 -16t107 -26.5t78.5 -37q68 -43 102.5 -103.5t34.5 -153.5q0 -98 -37.5 -161.5t-99.5 -101.5q-35 -21 -77.5 -35.5t-98 -23t-125.5 -12.5t-159 -4h-661v271h-90v138zM368 454v-45h351v-138h-351v-45h373q106 0 167 4t92 15
q33 13 49 35t16 58q0 65 -67 92q-42 17 -115 20.5t-187 3.5h-328z" />
    <glyph glyph-name="Ntilde" unicode="&#xd1;" horiz-adv-x="1335" 
d="M338 366v-366h-278v680h218l719 -366v366h278v-680h-217zM389 750v71q0 74 33.5 106.5t99.5 32.5q32 0 59.5 -7.5t48.5 -17.5l62 -29q15 -7 28 -12t23 -5q9 0 15 5.5t6 15.5v50h168v-71q0 -74 -33.5 -106.5t-99.5 -32.5q-32 0 -59.5 7.5t-48.5 17.5l-62 29
q-15 7 -28.5 12t-22.5 5t-15 -5.5t-6 -15.5v-50h-168z" />
    <glyph glyph-name="Ograve" unicode="&#xd2;" horiz-adv-x="1393" 
d="M45 340q0 51 8.5 90.5t26 70.5t43.5 54.5t61 42.5q75 42 203 69t309 27q182 0 310.5 -27t203.5 -69q34 -19 60 -42.5t43 -54.5t26 -70.5t9 -90.5t-9 -90.5t-26 -70.5t-43 -54.5t-60 -42.5q-75 -42 -203.5 -69t-310.5 -27q-181 0 -309 27t-203 69q-35 19 -61.5 42.5
t-43.5 54.5t-25.5 70.5t-8.5 90.5zM327 340q0 -39 16.5 -61.5t49.5 -36.5q19 -8 51.5 -13.5t72.5 -9t86 -5.5t93 -2q48 0 94 2t86 5.5t72 9t52 13.5q34 14 50 36.5t16 61.5t-16.5 61.5t-49.5 35.5q-20 8 -52 14t-72 9.5t-86 5.5t-94 2q-47 0 -93 -2t-86 -5.5t-72.5 -9.5
t-51.5 -14q-33 -13 -49.5 -35.5t-16.5 -61.5zM800 782v-20h-215l-216 120v40h295z" />
    <glyph glyph-name="Oacute" unicode="&#xd3;" horiz-adv-x="1393" 
d="M45 340q0 51 8.5 90.5t26 70.5t43.5 54.5t61 42.5q75 42 203 69t309 27q182 0 310.5 -27t203.5 -69q34 -19 60 -42.5t43 -54.5t26 -70.5t9 -90.5t-9 -90.5t-26 -70.5t-43 -54.5t-60 -42.5q-75 -42 -203.5 -69t-310.5 -27q-181 0 -309 27t-203 69q-35 19 -61.5 42.5
t-43.5 54.5t-25.5 70.5t-8.5 90.5zM327 340q0 -39 16.5 -61.5t49.5 -36.5q19 -8 51.5 -13.5t72.5 -9t86 -5.5t93 -2q48 0 94 2t86 5.5t72 9t52 13.5q34 14 50 36.5t16 61.5t-16.5 61.5t-49.5 35.5q-20 8 -52 14t-72 9.5t-86 5.5t-94 2q-47 0 -93 -2t-86 -5.5t-72.5 -9.5
t-51.5 -14q-33 -13 -49.5 -35.5t-16.5 -61.5zM722 922h295v-40l-236 -120h-215v20z" />
    <glyph glyph-name="Ocircumflex" unicode="&#xd4;" horiz-adv-x="1393" 
d="M45 340q0 51 8.5 90.5t26 70.5t43.5 54.5t61 42.5q75 42 203 69t309 27q182 0 310.5 -27t203.5 -69q34 -19 60 -42.5t43 -54.5t26 -70.5t9 -90.5t-9 -90.5t-26 -70.5t-43 -54.5t-60 -42.5q-75 -42 -203.5 -69t-310.5 -27q-181 0 -309 27t-203 69q-35 19 -61.5 42.5
t-43.5 54.5t-25.5 70.5t-8.5 90.5zM327 340q0 -39 16.5 -61.5t49.5 -36.5q19 -8 51.5 -13.5t72.5 -9t86 -5.5t93 -2q48 0 94 2t86 5.5t72 9t52 13.5q34 14 50 36.5t16 61.5t-16.5 61.5t-49.5 35.5q-20 8 -52 14t-72 9.5t-86 5.5t-94 2q-47 0 -93 -2t-86 -5.5t-72.5 -9.5
t-51.5 -14q-33 -13 -49.5 -35.5t-16.5 -61.5zM599 950h195l206 -150v-40h-205l-95 50h-9l-93 -50h-205v40z" />
    <glyph glyph-name="Otilde" unicode="&#xd5;" horiz-adv-x="1393" 
d="M45 340q0 51 8.5 90.5t26 70.5t43.5 54.5t61 42.5q75 42 203 69t309 27q182 0 310.5 -27t203.5 -69q34 -19 60 -42.5t43 -54.5t26 -70.5t9 -90.5t-9 -90.5t-26 -70.5t-43 -54.5t-60 -42.5q-75 -42 -203.5 -69t-310.5 -27q-181 0 -309 27t-203 69q-35 19 -61.5 42.5
t-43.5 54.5t-25.5 70.5t-8.5 90.5zM327 340q0 -39 16.5 -61.5t49.5 -36.5q19 -8 51.5 -13.5t72.5 -9t86 -5.5t93 -2q48 0 94 2t86 5.5t72 9t52 13.5q34 14 50 36.5t16 61.5t-16.5 61.5t-49.5 35.5q-20 8 -52 14t-72 9.5t-86 5.5t-94 2q-47 0 -93 -2t-86 -5.5t-72.5 -9.5
t-51.5 -14q-33 -13 -49.5 -35.5t-16.5 -61.5zM423 750v71q0 74 33.5 106.5t99.5 32.5q32 0 59.5 -7.5t48.5 -17.5l62 -29q15 -7 28 -12t23 -5q9 0 15 5.5t6 15.5v50h168v-71q0 -74 -33.5 -106.5t-99.5 -32.5q-32 0 -59.5 7.5t-48.5 17.5l-62 29q-15 7 -28.5 12t-22.5 5
t-15 -5.5t-6 -15.5v-50h-168z" />
    <glyph glyph-name="Odieresis" unicode="&#xd6;" horiz-adv-x="1393" 
d="M45 340q0 51 8.5 90.5t26 70.5t43.5 54.5t61 42.5q75 42 203 69t309 27q182 0 310.5 -27t203.5 -69q34 -19 60 -42.5t43 -54.5t26 -70.5t9 -90.5t-9 -90.5t-26 -70.5t-43 -54.5t-60 -42.5q-75 -42 -203.5 -69t-310.5 -27q-181 0 -309 27t-203 69q-35 19 -61.5 42.5
t-43.5 54.5t-25.5 70.5t-8.5 90.5zM327 340q0 -39 16.5 -61.5t49.5 -36.5q19 -8 51.5 -13.5t72.5 -9t86 -5.5t93 -2q48 0 94 2t86 5.5t72 9t52 13.5q34 14 50 36.5t16 61.5t-16.5 61.5t-49.5 35.5q-20 8 -52 14t-72 9.5t-86 5.5t-94 2q-47 0 -93 -2t-86 -5.5t-72.5 -9.5
t-51.5 -14q-33 -13 -49.5 -35.5t-16.5 -61.5zM377 843q0 41 33 65.5t111 24.5t111 -24.5t33 -65.5q0 -42 -33 -67.5t-111 -25.5t-111 25.5t-33 67.5zM725 843q0 41 33 65.5t111 24.5t111 -24.5t33 -65.5q0 -42 -33 -67.5t-111 -25.5t-111 25.5t-33 67.5z" />
    <glyph glyph-name="multiply" unicode="&#xd7;" 
d="M792 312v-4l268 -120l-80 -162l-380 183l-380 -183l-80 162l268 120v4l-268 120l80 163l380 -184l380 184l80 -163z" />
    <glyph glyph-name="Oslash" unicode="&#xd8;" horiz-adv-x="1393" 
d="M242 54q-17 6 -31 13t-27 15q-35 19 -61.5 42.5t-43.5 54.5t-25.5 70.5t-8.5 90.5t8.5 90.5t26 70.5t43.5 54.5t61 42.5q75 42 203 69t309 27q85 0 157.5 -6.5t134.5 -17.5l72 60h192v-20l-102 -84q17 -7 31.5 -13.5t28.5 -14.5q34 -19 60 -42.5t43 -54.5t26 -70.5
t9 -90.5t-9 -90.5t-26 -70.5t-43 -54.5t-60 -42.5q-75 -42 -203.5 -69t-310.5 -27q-85 0 -157 6t-134 17l-72 -59h-192v20zM1000 437q-11 5 -26.5 8.5t-33.5 6.5l-290 -239v-1h46q48 0 94 2t86 5.5t72 9t52 13.5q34 14 50 36.5t16 61.5t-16.5 61.5t-49.5 35.5zM327 340
q0 -39 16 -61.5t50 -36.5q11 -5 28 -8.5t32 -5.5l289 239v1h-46q-47 0 -93 -2t-86 -5.5t-72.5 -9.5t-51.5 -14q-33 -13 -49.5 -35.5t-16.5 -61.5z" />
    <glyph glyph-name="Ugrave" unicode="&#xd9;" horiz-adv-x="1336" 
d="M998 680h278v-410q0 -48 -39 -98.5t-115.5 -91.5t-190 -67.5t-263.5 -26.5t-263.5 26.5t-190 67.5t-115.5 91.5t-39 98.5v410h278v-348q0 -58 86 -89t244 -31t244 31t86 89v348zM828 782v-20h-215l-216 120v40h295z" />
    <glyph glyph-name="Uacute" unicode="&#xda;" horiz-adv-x="1336" 
d="M998 680h278v-410q0 -48 -39 -98.5t-115.5 -91.5t-190 -67.5t-263.5 -26.5t-263.5 26.5t-190 67.5t-115.5 91.5t-39 98.5v410h278v-348q0 -58 86 -89t244 -31t244 31t86 89v348zM694 922h295v-40l-236 -120h-215v20z" />
    <glyph glyph-name="Ucircumflex" unicode="&#xdb;" horiz-adv-x="1336" 
d="M998 680h278v-410q0 -48 -39 -98.5t-115.5 -91.5t-190 -67.5t-263.5 -26.5t-263.5 26.5t-190 67.5t-115.5 91.5t-39 98.5v410h278v-348q0 -58 86 -89t244 -31t244 31t86 89v348zM569 950h195l206 -150v-40h-205l-95 50h-9l-93 -50h-205v40z" />
    <glyph glyph-name="Udieresis" unicode="&#xdc;" horiz-adv-x="1336" 
d="M998 680h278v-410q0 -48 -39 -98.5t-115.5 -91.5t-190 -67.5t-263.5 -26.5t-263.5 26.5t-190 67.5t-115.5 91.5t-39 98.5v410h278v-348q0 -58 86 -89t244 -31t244 31t86 89v348zM349 843q0 41 33 65.5t111 24.5t111 -24.5t33 -65.5q0 -42 -33 -67.5t-111 -25.5t-111 25.5
t-33 67.5zM697 843q0 41 33 65.5t111 24.5t111 -24.5t33 -65.5q0 -42 -33 -67.5t-111 -25.5t-111 25.5t-33 67.5z" />
    <glyph glyph-name="Yacute" unicode="&#xdd;" horiz-adv-x="1284" 
d="M641 467h2l237 213h392v-10l-491 -440v-230h-278v230l-491 440v10h392zM692 922h295v-40l-236 -120h-215v20z" />
    <glyph glyph-name="Thorn" unicode="&#xde;" horiz-adv-x="1247" 
d="M60 680h278v-81h503q104 0 176 -17t116.5 -50.5t64 -83.5t19.5 -115q0 -60 -21.5 -106.5t-67.5 -79t-117 -49.5t-170 -17h-503v-81h-278v680zM338 373v-90h489q35 0 56 3t32.5 9t15.5 14t4 18q0 11 -5 19.5t-17 14.5t-33 9t-53 3h-489z" />
    <glyph glyph-name="germandbls" unicode="&#xdf;" horiz-adv-x="1108" 
d="M45 452q0 54 24.5 98t83 75t157 48t247.5 17q128 0 221 -17.5t147 -43.5q48 -23 76 -59t28 -92q0 -45 -18.5 -72.5t-50.5 -48.5l9 -3q50 -22 74.5 -58t24.5 -94q0 -56 -22 -102.5t-70 -70.5q-53 -27 -129 -35t-183 -8q-68 0 -122 1t-92 3q-45 2 -79 4l10 201l82 -4
q35 -2 75.5 -2.5t75.5 -0.5q72 0 111.5 3.5t60.5 8.5q14 3 19 10t5 15t-5 14.5t-19 8.5q-8 1 -33.5 2.5t-60.5 3t-75.5 2t-78.5 0.5h-155v164h155q32 0 66 0.5t63.5 1.5t51 2t28.5 3q14 2 19 7.5t5 13.5t-5 14t-19 9q-13 3 -37.5 5t-53.5 4t-60 3t-58 1q-72 0 -120.5 -4.5
t-75.5 -10.5q-24 -5 -31.5 -16t-7.5 -25v-428h-258v452z" />
    <glyph glyph-name="agrave" unicode="&#xe0;" horiz-adv-x="939" 
d="M668 41q-32 -12 -70.5 -22.5t-80 -17.5t-84 -11t-81.5 -4q-85 0 -142.5 9.5t-89.5 24.5q-33 16 -56.5 48t-23.5 86q0 45 19.5 77.5t52.5 50.5q37 20 101.5 31t151.5 11t156.5 -6t111.5 -13l3 1v14q0 10 -7 18.5t-31 13.5q-26 6 -83 11t-125 5q-107 0 -177.5 -9.5
t-114.5 -18.5l-27 176q12 3 45.5 9t80 11.5t102 9.5t111.5 4q238 0 361 -55t123 -161v-334h-198l-24 41h-4zM389 154q72 0 138 5.5t109 15.5v19q-2 0 -21.5 1t-52.5 2t-77.5 2t-95.5 1q-21 0 -44.5 -1t-34.5 -5q-12 -5 -12 -16q0 -14 13 -20q6 -2 23.5 -3t54.5 -1zM602 630
v-20h-215l-216 120v40h295z" />
    <glyph glyph-name="aacute" unicode="&#xe1;" horiz-adv-x="939" 
d="M668 41q-32 -12 -70.5 -22.5t-80 -17.5t-84 -11t-81.5 -4q-85 0 -142.5 9.5t-89.5 24.5q-33 16 -56.5 48t-23.5 86q0 45 19.5 77.5t52.5 50.5q37 20 101.5 31t151.5 11t156.5 -6t111.5 -13l3 1v14q0 10 -7 18.5t-31 13.5q-26 6 -83 11t-125 5q-107 0 -177.5 -9.5
t-114.5 -18.5l-27 176q12 3 45.5 9t80 11.5t102 9.5t111.5 4q238 0 361 -55t123 -161v-334h-198l-24 41h-4zM389 154q72 0 138 5.5t109 15.5v19q-2 0 -21.5 1t-52.5 2t-77.5 2t-95.5 1q-21 0 -44.5 -1t-34.5 -5q-12 -5 -12 -16q0 -14 13 -20q6 -2 23.5 -3t54.5 -1zM499 770
h295v-40l-236 -120h-215v20z" />
    <glyph glyph-name="acircumflex" unicode="&#xe2;" horiz-adv-x="939" 
d="M668 41q-32 -12 -70.5 -22.5t-80 -17.5t-84 -11t-81.5 -4q-85 0 -142.5 9.5t-89.5 24.5q-33 16 -56.5 48t-23.5 86q0 45 19.5 77.5t52.5 50.5q37 20 101.5 31t151.5 11t156.5 -6t111.5 -13l3 1v14q0 10 -7 18.5t-31 13.5q-26 6 -83 11t-125 5q-107 0 -177.5 -9.5
t-114.5 -18.5l-27 176q12 3 45.5 9t80 11.5t102 9.5t111.5 4q238 0 361 -55t123 -161v-334h-198l-24 41h-4zM389 154q72 0 138 5.5t109 15.5v19q-2 0 -21.5 1t-52.5 2t-77.5 2t-95.5 1q-21 0 -44.5 -1t-34.5 -5q-12 -5 -12 -16q0 -14 13 -20q6 -2 23.5 -3t54.5 -1zM379 800
h195l206 -150v-40h-205l-95 50h-9l-93 -50h-205v40z" />
    <glyph glyph-name="atilde" unicode="&#xe3;" horiz-adv-x="939" 
d="M668 41q-32 -12 -70.5 -22.5t-80 -17.5t-84 -11t-81.5 -4q-85 0 -142.5 9.5t-89.5 24.5q-33 16 -56.5 48t-23.5 86q0 45 19.5 77.5t52.5 50.5q37 20 101.5 31t151.5 11t156.5 -6t111.5 -13l3 1v14q0 10 -7 18.5t-31 13.5q-26 6 -83 11t-125 5q-107 0 -177.5 -9.5
t-114.5 -18.5l-27 176q12 3 45.5 9t80 11.5t102 9.5t111.5 4q238 0 361 -55t123 -161v-334h-198l-24 41h-4zM389 154q72 0 138 5.5t109 15.5v19q-2 0 -21.5 1t-52.5 2t-77.5 2t-95.5 1q-21 0 -44.5 -1t-34.5 -5q-12 -5 -12 -16q0 -14 13 -20q6 -2 23.5 -3t54.5 -1zM196 600
v71q0 74 33.5 106.5t99.5 32.5q32 0 59.5 -7.5t48.5 -17.5l62 -29q15 -7 28 -12t23 -5q9 0 15 5.5t6 15.5v50h168v-71q0 -74 -33.5 -106.5t-99.5 -32.5q-32 0 -59.5 7.5t-48.5 17.5l-62 29q-15 7 -28.5 12t-22.5 5t-15 -5.5t-6 -15.5v-50h-168z" />
    <glyph glyph-name="adieresis" unicode="&#xe4;" horiz-adv-x="939" 
d="M668 41q-32 -12 -70.5 -22.5t-80 -17.5t-84 -11t-81.5 -4q-85 0 -142.5 9.5t-89.5 24.5q-33 16 -56.5 48t-23.5 86q0 45 19.5 77.5t52.5 50.5q37 20 101.5 31t151.5 11t156.5 -6t111.5 -13l3 1v14q0 10 -7 18.5t-31 13.5q-26 6 -83 11t-125 5q-107 0 -177.5 -9.5
t-114.5 -18.5l-27 176q12 3 45.5 9t80 11.5t102 9.5t111.5 4q238 0 361 -55t123 -161v-334h-198l-24 41h-4zM389 154q72 0 138 5.5t109 15.5v19q-2 0 -21.5 1t-52.5 2t-77.5 2t-95.5 1q-21 0 -44.5 -1t-34.5 -5q-12 -5 -12 -16q0 -14 13 -20q6 -2 23.5 -3t54.5 -1zM149 693
q0 41 33 65.5t111 24.5t111 -24.5t33 -65.5q0 -42 -33 -67.5t-111 -25.5t-111 25.5t-33 67.5zM497 693q0 41 33 65.5t111 24.5t111 -24.5t33 -65.5q0 -42 -33 -67.5t-111 -25.5t-111 25.5t-33 67.5z" />
    <glyph glyph-name="aring" unicode="&#xe5;" horiz-adv-x="939" 
d="M668 41q-32 -12 -70.5 -22.5t-80 -17.5t-84 -11t-81.5 -4q-85 0 -142.5 9.5t-89.5 24.5q-33 16 -56.5 48t-23.5 86q0 45 19.5 77.5t52.5 50.5q37 20 101.5 31t151.5 11t156.5 -6t111.5 -13l3 1v14q0 10 -7 18.5t-31 13.5q-26 6 -83 11t-125 5q-107 0 -177.5 -9.5
t-114.5 -18.5l-27 176q12 3 45.5 9t80 11.5t102 9.5t111.5 4q238 0 361 -55t123 -161v-334h-198l-24 41h-4zM389 154q72 0 138 5.5t109 15.5v19q-2 0 -21.5 1t-52.5 2t-77.5 2t-95.5 1q-21 0 -44.5 -1t-34.5 -5q-12 -5 -12 -16q0 -14 13 -20q6 -2 23.5 -3t54.5 -1zM253 740
q0 29 12.5 54t39.5 43t69.5 28.5t102.5 10.5t102.5 -10.5t69.5 -28.5t39.5 -43t12.5 -54q0 -31 -12.5 -56.5t-39.5 -44t-69.5 -29t-102.5 -10.5t-102.5 10.5t-69.5 29t-39.5 44t-12.5 56.5zM410 740q0 -14 14.5 -23t52.5 -9t52.5 9t14.5 23q0 12 -14.5 20t-52.5 8t-52.5 -8
t-14.5 -20z" />
    <glyph glyph-name="ae" unicode="&#xe6;" horiz-adv-x="1534" 
d="M894 200v-5q0 -22 26 -31q11 -4 60 -7t123 -3q60 0 108.5 1.5t90.5 3.5t80.5 4.5t78.5 5.5l7 -149q-25 -5 -58 -11t-78 -11t-103 -8.5t-132 -3.5t-131 5t-98.5 13t-69.5 17.5t-43 18.5q-3 2 -7 4l-8 4l-8 6h-4q-32 -12 -72.5 -24.5t-88.5 -22t-102.5 -15.5t-112.5 -6
q-85 0 -142.5 9.5t-89.5 24.5q-33 16 -56.5 48t-23.5 86q0 45 19.5 77.5t52.5 50.5q37 20 101.5 31t151.5 11t156.5 -6t111.5 -13l3 1v14q0 10 -7 18.5t-31 13.5q-26 6 -83 11t-125 5q-107 0 -177.5 -9.5t-114.5 -18.5l-27 176q12 3 45.5 9t80 11.5t102 9.5t111.5 4
q249 0 364 -62h3q54 31 130 46.5t169 15.5q110 0 181.5 -12t116.5 -29q120 -47 120 -163q0 -32 -5.5 -72.5t-13.5 -73.5h-581zM894 328h370q0 3 1 6q0 2 0.5 5t0.5 5q0 20 -28 27q-17 5 -58.5 8t-90.5 3q-72 0 -114 -6t-57 -13q-24 -11 -24 -31v-4zM389 154q72 0 138 5.5
t109 15.5v19q-2 0 -21.5 1t-52.5 2t-77.5 2t-95.5 1q-21 0 -44.5 -1t-34.5 -5q-12 -5 -12 -16q0 -14 13 -20q6 -2 23.5 -3t54.5 -1z" />
    <glyph glyph-name="ccedilla" unicode="&#xe7;" horiz-adv-x="930" 
d="M310 -147q29 -2 62 -4q29 -2 67 -2.5t80 -0.5q26 0 41.5 1t24 3.5t11.5 5.5t3 8t-3.5 7.5t-15.5 2.5h-200l-34 29l27 89q-72 5 -124 16.5t-95 34.5q-54 28 -84 82.5t-30 131.5q0 80 30 132.5t84 87.5q26 16 58 30t73.5 24t94.5 15.5t121 5.5q127 0 231 -15.5t173 -34.5
l-37 -184q-64 8 -158.5 18t-208.5 10q-73 0 -111.5 -5.5t-59.5 -16.5q-18 -9 -25 -24t-7 -34q0 -22 7.5 -34t22.5 -20q17 -9 57 -13.5t116 -4.5q102 0 191.5 11.5t177.5 23.5l35 -194q-66 -16 -160 -30t-206 -16l-3 -32l2 -1q15 1 33 3q14 1 32.5 2t36.5 1q45 0 74 -7.5
t46 -20.5t24 -31t7 -39q0 -29 -10.5 -52t-40.5 -39t-83 -24.5t-138 -8.5q-32 0 -70 2t-70 5q-38 3 -75 7z" />
    <glyph glyph-name="egrave" unicode="&#xe8;" horiz-adv-x="978" 
d="M298 200v-5q0 -22 26 -31q11 -4 63 -7t140 -3q61 0 114 1t99 3.5t86.5 5t78.5 5.5l7 -149q-50 -10 -146 -22t-245 -12q-61 0 -117 3.5t-103.5 10.5t-85 17.5t-61.5 24.5q-53 31 -83.5 82.5t-30.5 140.5q0 76 27 128t81 87q28 18 67 31.5t84.5 22t96.5 12.5t104 4
q115 0 194 -12t124 -29q120 -47 120 -163q0 -32 -5.5 -72.5t-13.5 -73.5h-621zM298 328h410q0 3 1 6q0 2 0.5 5t0.5 5q0 20 -28 27q-18 5 -62 8t-107 3q-79 0 -127.5 -6t-63.5 -13q-24 -11 -24 -31v-4zM589 630v-20h-215l-216 120v40h295z" />
    <glyph glyph-name="eacute" unicode="&#xe9;" horiz-adv-x="978" 
d="M298 200v-5q0 -22 26 -31q11 -4 63 -7t140 -3q61 0 114 1t99 3.5t86.5 5t78.5 5.5l7 -149q-50 -10 -146 -22t-245 -12q-61 0 -117 3.5t-103.5 10.5t-85 17.5t-61.5 24.5q-53 31 -83.5 82.5t-30.5 140.5q0 76 27 128t81 87q28 18 67 31.5t84.5 22t96.5 12.5t104 4
q115 0 194 -12t124 -29q120 -47 120 -163q0 -32 -5.5 -72.5t-13.5 -73.5h-621zM298 328h410q0 3 1 6q0 2 0.5 5t0.5 5q0 20 -28 27q-18 5 -62 8t-107 3q-79 0 -127.5 -6t-63.5 -13q-24 -11 -24 -31v-4zM524 770h295v-40l-236 -120h-215v20z" />
    <glyph glyph-name="ecircumflex" unicode="&#xea;" horiz-adv-x="978" 
d="M298 200v-5q0 -22 26 -31q11 -4 63 -7t140 -3q61 0 114 1t99 3.5t86.5 5t78.5 5.5l7 -149q-50 -10 -146 -22t-245 -12q-61 0 -117 3.5t-103.5 10.5t-85 17.5t-61.5 24.5q-53 31 -83.5 82.5t-30.5 140.5q0 76 27 128t81 87q28 18 67 31.5t84.5 22t96.5 12.5t104 4
q115 0 194 -12t124 -29q120 -47 120 -163q0 -32 -5.5 -72.5t-13.5 -73.5h-621zM298 328h410q0 3 1 6q0 2 0.5 5t0.5 5q0 20 -28 27q-18 5 -62 8t-107 3q-79 0 -127.5 -6t-63.5 -13q-24 -11 -24 -31v-4zM393 800h195l206 -150v-40h-205l-95 50h-9l-93 -50h-205v40z" />
    <glyph glyph-name="edieresis" unicode="&#xeb;" horiz-adv-x="978" 
d="M298 200v-5q0 -22 26 -31q11 -4 63 -7t140 -3q61 0 114 1t99 3.5t86.5 5t78.5 5.5l7 -149q-50 -10 -146 -22t-245 -12q-61 0 -117 3.5t-103.5 10.5t-85 17.5t-61.5 24.5q-53 31 -83.5 82.5t-30.5 140.5q0 76 27 128t81 87q28 18 67 31.5t84.5 22t96.5 12.5t104 4
q115 0 194 -12t124 -29q120 -47 120 -163q0 -32 -5.5 -72.5t-13.5 -73.5h-621zM298 328h410q0 3 1 6q0 2 0.5 5t0.5 5q0 20 -28 27q-18 5 -62 8t-107 3q-79 0 -127.5 -6t-63.5 -13q-24 -11 -24 -31v-4zM181 697q0 41 33 65.5t111 24.5t111 -24.5t33 -65.5q0 -42 -33 -67.5
t-111 -25.5t-111 25.5t-33 67.5zM529 697q0 41 33 65.5t111 24.5t111 -24.5t33 -65.5q0 -42 -33 -67.5t-111 -25.5t-111 25.5t-33 67.5z" />
    <glyph glyph-name="igrave" unicode="&#xec;" horiz-adv-x="348" 
d="M307 630v-20h-215l-216 120v40h295zM303 0h-258v540h258v-540z" />
    <glyph glyph-name="iacute" unicode="&#xed;" horiz-adv-x="348" 
d="M212 770h295v-40l-236 -120h-215v20zM303 0h-258v540h258v-540z" />
    <glyph glyph-name="icircumflex" unicode="&#xee;" horiz-adv-x="348" 
d="M77 800h195l206 -150v-40h-205l-95 50h-9l-93 -50h-205v40zM303 0h-258v540h258v-540z" />
    <glyph glyph-name="idieresis" unicode="&#xef;" horiz-adv-x="348" 
d="M-114 693q0 41 29.5 65.5t99.5 24.5t99.5 -24.5t29.5 -65.5q0 -42 -29.5 -67.5t-99.5 -25.5t-99.5 25.5t-29.5 67.5zM204 693q0 41 29.5 65.5t99.5 24.5t99.5 -24.5t29.5 -65.5q0 -42 -29.5 -67.5t-99.5 -25.5t-99.5 25.5t-29.5 67.5zM303 0h-258v540h258v-540z" />
    <glyph glyph-name="eth" unicode="&#xf0;" horiz-adv-x="1008" 
d="M40 237q0 66 27.5 104t75.5 64q50 26 131 40.5t210 14.5q50 0 100 -6t85 -15l4 7q-7 7 -22.5 18.5t-42.5 25t-67 28t-97 27.5q-5 1 -8.5 1.5t-8.5 1.5l-113 -75h-200v20l130 85v1q-26 3 -49.5 5.5t-42.5 4.5t-31.5 3.5t-16.5 1.5l13 170q26 -2 65.5 -5t85.5 -8.5t95 -13
t94 -16.5l88 59h200v-20l-127 -83v-1q70 -26 133.5 -60.5t111.5 -80.5t76.5 -105t28.5 -133q0 -71 -18.5 -130t-75.5 -104q-23 -18 -56.5 -31.5t-78.5 -23t-103.5 -14t-131.5 -4.5q-128 0 -217.5 18.5t-141.5 47.5q-48 26 -76.5 70.5t-28.5 110.5zM298 235q0 -23 34 -30
q10 -2 28.5 -4t42 -3t49.5 -1.5t52 -0.5q25 0 51.5 0.5t49.5 1.5t41.5 3t29.5 4q34 7 34 30t-34 30q-11 2 -29.5 4t-41.5 3t-49.5 1.5t-51.5 0.5q-26 0 -52 -0.5t-49.5 -1.5t-42 -3t-28.5 -4q-34 -7 -34 -30z" />
    <glyph glyph-name="ntilde" unicode="&#xf1;" horiz-adv-x="1004" 
d="M701 0v268q0 16 -7 29.5t-26.5 24t-54 16.5t-90.5 6q-43 0 -82.5 -3t-70.5 -7q-36 -4 -67 -10v-324h-258v540h198l29 -50h5q25 13 58 24t71.5 19t81 12.5t85.5 4.5q114 0 188.5 -20t118.5 -55.5t61.5 -84.5t17.5 -108v-282h-258zM249 600v71q0 74 33.5 106.5t99.5 32.5
q32 0 59.5 -7.5t48.5 -17.5l62 -29q15 -7 28 -12t23 -5q9 0 15 5.5t6 15.5v50h168v-71q0 -74 -33.5 -106.5t-99.5 -32.5q-32 0 -59.5 7.5t-48.5 17.5l-62 29q-15 7 -28.5 12t-22.5 5t-15 -5.5t-6 -15.5v-50h-168z" />
    <glyph glyph-name="ograve" unicode="&#xf2;" horiz-adv-x="1008" 
d="M40 270q0 77 27.5 125t75.5 80q54 33 143.5 54t217.5 21t218 -20t143 -55q48 -32 75.5 -80t27.5 -125t-27.5 -125t-75.5 -80q-53 -35 -143 -55t-218 -20t-218 20.5t-143 54.5q-48 32 -75.5 80t-27.5 125zM298 270q0 -23 10.5 -36t28.5 -21q10 -5 28 -8t40.5 -5t47.5 -3
t51 -1q25 0 50.5 1t48 3t40 5t28.5 8q18 8 28.5 21t10.5 36t-10.5 36t-28.5 21q-11 4 -28.5 7.5t-40 5.5t-48 3t-50.5 1q-26 0 -51 -1t-47.5 -3t-40.5 -5.5t-28 -7.5q-18 -8 -28.5 -21t-10.5 -36zM611 630v-20h-215l-216 120v40h295z" />
    <glyph glyph-name="oacute" unicode="&#xf3;" horiz-adv-x="1008" 
d="M40 270q0 77 27.5 125t75.5 80q54 33 143.5 54t217.5 21t218 -20t143 -55q48 -32 75.5 -80t27.5 -125t-27.5 -125t-75.5 -80q-53 -35 -143 -55t-218 -20t-218 20.5t-143 54.5q-48 32 -75.5 80t-27.5 125zM298 270q0 -23 10.5 -36t28.5 -21q10 -5 28 -8t40.5 -5t47.5 -3
t51 -1q25 0 50.5 1t48 3t40 5t28.5 8q18 8 28.5 21t10.5 36t-10.5 36t-28.5 21q-11 4 -28.5 7.5t-40 5.5t-48 3t-50.5 1q-26 0 -51 -1t-47.5 -3t-40.5 -5.5t-28 -7.5q-18 -8 -28.5 -21t-10.5 -36zM557 770h295v-40l-236 -120h-215v20z" />
    <glyph glyph-name="ocircumflex" unicode="&#xf4;" horiz-adv-x="1008" 
d="M40 270q0 77 27.5 125t75.5 80q54 33 143.5 54t217.5 21t218 -20t143 -55q48 -32 75.5 -80t27.5 -125t-27.5 -125t-75.5 -80q-53 -35 -143 -55t-218 -20t-218 20.5t-143 54.5q-48 32 -75.5 80t-27.5 125zM298 270q0 -23 10.5 -36t28.5 -21q10 -5 28 -8t40.5 -5t47.5 -3
t51 -1q25 0 50.5 1t48 3t40 5t28.5 8q18 8 28.5 21t10.5 36t-10.5 36t-28.5 21q-11 4 -28.5 7.5t-40 5.5t-48 3t-50.5 1q-26 0 -51 -1t-47.5 -3t-40.5 -5.5t-28 -7.5q-18 -8 -28.5 -21t-10.5 -36zM403 800h195l206 -150v-40h-205l-95 50h-9l-93 -50h-205v40z" />
    <glyph glyph-name="otilde" unicode="&#xf5;" horiz-adv-x="1008" 
d="M40 270q0 77 27.5 125t75.5 80q54 33 143.5 54t217.5 21t218 -20t143 -55q48 -32 75.5 -80t27.5 -125t-27.5 -125t-75.5 -80q-53 -35 -143 -55t-218 -20t-218 20.5t-143 54.5q-48 32 -75.5 80t-27.5 125zM298 270q0 -23 10.5 -36t28.5 -21q10 -5 28 -8t40.5 -5t47.5 -3
t51 -1q25 0 50.5 1t48 3t40 5t28.5 8q18 8 28.5 21t10.5 36t-10.5 36t-28.5 21q-11 4 -28.5 7.5t-40 5.5t-48 3t-50.5 1q-26 0 -51 -1t-47.5 -3t-40.5 -5.5t-28 -7.5q-18 -8 -28.5 -21t-10.5 -36zM241 597v71q0 74 33.5 106.5t99.5 32.5q32 0 59.5 -7.5t48.5 -17.5l62 -29
q15 -7 28 -12t23 -5q9 0 15 5.5t6 15.5v50h168v-71q0 -74 -33.5 -106.5t-99.5 -32.5q-32 0 -59.5 7.5t-48.5 17.5l-62 29q-15 7 -28.5 12t-22.5 5t-15 -5.5t-6 -15.5v-50h-168z" />
    <glyph glyph-name="odieresis" unicode="&#xf6;" horiz-adv-x="1008" 
d="M40 270q0 77 27.5 125t75.5 80q54 33 143.5 54t217.5 21t218 -20t143 -55q48 -32 75.5 -80t27.5 -125t-27.5 -125t-75.5 -80q-53 -35 -143 -55t-218 -20t-218 20.5t-143 54.5q-48 32 -75.5 80t-27.5 125zM298 270q0 -23 10.5 -36t28.5 -21q10 -5 28 -8t40.5 -5t47.5 -3
t51 -1q25 0 50.5 1t48 3t40 5t28.5 8q18 8 28.5 21t10.5 36t-10.5 36t-28.5 21q-11 4 -28.5 7.5t-40 5.5t-48 3t-50.5 1q-26 0 -51 -1t-47.5 -3t-40.5 -5.5t-28 -7.5q-18 -8 -28.5 -21t-10.5 -36zM184 682q0 41 33 65.5t111 24.5t111 -24.5t33 -65.5q0 -42 -33 -67.5
t-111 -25.5t-111 25.5t-33 67.5zM532 682q0 41 33 65.5t111 24.5t111 -24.5t33 -65.5q0 -42 -33 -67.5t-111 -25.5t-111 25.5t-33 67.5z" />
    <glyph glyph-name="divide" unicode="&#xf7;" 
d="M150 221v178h900v-178h-900zM456 542q0 41 33 65.5t111 24.5t111 -24.5t33 -65.5q0 -42 -33 -67.5t-111 -25.5t-111 25.5t-33 67.5zM456 81q0 41 33 65.5t111 24.5t111 -24.5t33 -65.5q0 -42 -33 -67.5t-111 -25.5t-111 25.5t-33 67.5z" />
    <glyph glyph-name="oslash" unicode="&#xf8;" horiz-adv-x="1008" 
d="M40 270q0 77 27.5 125t75.5 80q54 33 143.5 54t217.5 21q47 0 88 -3t78 -8l50 51h172v-20l-70 -72q12 -5 22.5 -11t20.5 -12q48 -32 75.5 -80t27.5 -125t-27.5 -125t-75.5 -80q-53 -35 -143 -55t-218 -20q-47 0 -88 3t-77 8l-50 -51h-172v20l70 72q-13 5 -23.5 10.5
t-20.5 12.5q-48 32 -75.5 80t-27.5 125zM298 270q0 -23 10.5 -36t28.5 -21q2 -1 8 -3q3 -1 5 -1l130 134v1q-45 -1 -85 -5t-58 -12t-28.5 -21t-10.5 -36zM671 327q-2 1 -4 1.5t-4 1.5q-3 1 -4 1l-130 -134v-1q45 1 84 5t58 12q18 8 28.5 21t10.5 36t-10 36t-29 21z" />
    <glyph glyph-name="ugrave" unicode="&#xf9;" horiz-adv-x="1004" 
d="M303 540v-268q0 -18 9 -32t29.5 -24t54 -15t82.5 -5q43 0 82.5 5t71.5 11q36 7 69 17v311h258v-540h-198l-22 42h-6q-76 -29 -149.5 -40.5t-142.5 -11.5q-114 0 -190 18t-121.5 52.5t-65 84.5t-19.5 113v282h258zM626 630v-20h-215l-216 120v40h295z" />
    <glyph glyph-name="uacute" unicode="&#xfa;" horiz-adv-x="1004" 
d="M303 540v-268q0 -18 9 -32t29.5 -24t54 -15t82.5 -5q43 0 82.5 5t71.5 11q36 7 69 17v311h258v-540h-198l-22 42h-6q-76 -29 -149.5 -40.5t-142.5 -11.5q-114 0 -190 18t-121.5 52.5t-65 84.5t-19.5 113v282h258zM546 770h295v-40l-236 -120h-215v20z" />
    <glyph glyph-name="ucircumflex" unicode="&#xfb;" horiz-adv-x="1004" 
d="M303 540v-268q0 -18 9 -32t29.5 -24t54 -15t82.5 -5q43 0 82.5 5t71.5 11q36 7 69 17v311h258v-540h-198l-22 42h-6q-76 -29 -149.5 -40.5t-142.5 -11.5q-114 0 -190 18t-121.5 52.5t-65 84.5t-19.5 113v282h258zM411 800h195l206 -150v-40h-205l-95 50h-9l-93 -50h-205
v40z" />
    <glyph glyph-name="udieresis" unicode="&#xfc;" horiz-adv-x="1004" 
d="M303 540v-268q0 -18 9 -32t29.5 -24t54 -15t82.5 -5q43 0 82.5 5t71.5 11q36 7 69 17v311h258v-540h-198l-22 42h-6q-76 -29 -149.5 -40.5t-142.5 -11.5q-114 0 -190 18t-121.5 52.5t-65 84.5t-19.5 113v282h258zM189 692q0 41 33 65.5t111 24.5t111 -24.5t33 -65.5
q0 -42 -33 -67.5t-111 -25.5t-111 25.5t-33 67.5zM537 692q0 41 33 65.5t111 24.5t111 -24.5t33 -65.5q0 -42 -33 -67.5t-111 -25.5t-111 25.5t-33 67.5z" />
    <glyph glyph-name="yacute" unicode="&#xfd;" horiz-adv-x="1121" 
d="M152 -180v11l273 299l-413 382v28h342l241 -224l204 224h310v-28l-631 -692h-326zM624 770h295v-40l-236 -120h-215v20z" />
    <glyph glyph-name="thorn" unicode="&#xfe;" horiz-adv-x="1043" 
d="M45 750h258v-234h4q23 6 55.5 12t70.5 11t80 8t84 3q125 0 204 -23t124 -61.5t61.5 -89t16.5 -104.5q0 -59 -19 -110.5t-64.5 -89.5t-122 -60t-191.5 -22q-46 0 -94 4.5t-89.5 10.5t-72.5 12t-43 10l-4 -2v-275h-258v1000zM745 272q0 17 -7.5 30.5t-28 22.5t-56 14
t-91.5 5t-103 -3.5t-82 -7.5q-40 -5 -74 -11v-104q40 -7 84 -11q38 -5 83.5 -8t91.5 -3q55 0 91 5t56 14.5t28 24t8 32.5z" />
    <glyph glyph-name="ydieresis" unicode="&#xff;" horiz-adv-x="1121" 
d="M152 -180v11l273 299l-413 382v28h342l241 -224l204 224h310v-28l-631 -692h-326zM264 689q0 41 33 65.5t111 24.5t111 -24.5t33 -65.5q0 -42 -33 -67.5t-111 -25.5t-111 25.5t-33 67.5zM612 689q0 41 33 65.5t111 24.5t111 -24.5t33 -65.5q0 -42 -33 -67.5t-111 -25.5
t-111 25.5t-33 67.5z" />
    <glyph glyph-name="dotlessi" unicode="&#x131;" horiz-adv-x="348" 
d="M303 0h-258v540h258v-540z" />
    <glyph glyph-name="OE" unicode="&#x152;" horiz-adv-x="2252" 
d="M45 340q0 51 8.5 90.5t26 70.5t43.5 54.5t61 42.5q75 42 203 69t309 27q65 0 122.5 -3.5t108.5 -10.5h1280v-192h-881l-5 -7q5 -12 10.5 -25t8.5 -27h821v-178h-821q-4 -15 -9.5 -28.5t-10.5 -26.5l6 -4h881v-192h-1280q-51 -7 -108.5 -10.5t-122.5 -3.5q-181 0 -309 27
t-203 69q-35 19 -61.5 42.5t-43.5 54.5t-25.5 70.5t-8.5 90.5zM327 340q0 -39 16.5 -61.5t49.5 -36.5q19 -8 51.5 -13.5t72.5 -9t86 -5.5t93 -2q48 0 94 2t86 5.5t72 9t52 13.5q34 14 50 36.5t16 61.5t-16.5 61.5t-49.5 35.5q-20 8 -52 14t-72 9.5t-86 5.5t-94 2
q-47 0 -93 -2t-86 -5.5t-72.5 -9.5t-51.5 -14q-33 -13 -49.5 -35.5t-16.5 -61.5z" />
    <glyph glyph-name="oe" unicode="&#x153;" horiz-adv-x="1608" 
d="M968 200v-5q0 -22 26 -31q11 -4 60 -7t123 -3q60 0 108.5 1.5t90.5 3.5t80.5 4.5t78.5 5.5l7 -149q-25 -5 -58 -11t-78 -11t-103 -8.5t-132 -3.5q-51 0 -103 3.5t-98.5 11t-85 18.5t-60.5 25h-1q-54 -24 -134 -39t-185 -15q-128 0 -218 20.5t-143 54.5q-48 32 -75.5 80
t-27.5 125t27.5 125t75.5 80q54 33 143.5 54t217.5 21q112 0 194.5 -17t137.5 -44h2q57 31 137.5 46t174.5 15q110 0 181.5 -12t116.5 -29q120 -47 120 -163q0 -32 -5.5 -72.5t-13.5 -73.5h-581zM298 270q0 -23 10.5 -36t28.5 -21q10 -5 28 -8t40.5 -5t47.5 -3t51 -1
q25 0 50.5 1t48 3t40 5t28.5 8q18 8 28.5 21t10.5 36t-10.5 36t-28.5 21q-11 4 -28.5 7.5t-40 5.5t-48 3t-50.5 1q-26 0 -51 -1t-47.5 -3t-40.5 -5.5t-28 -7.5q-18 -8 -28.5 -21t-10.5 -36zM968 328h370q0 3 1 6q0 2 0.5 5t0.5 5q0 20 -28 27q-17 5 -58.5 8t-90.5 3
q-72 0 -114 -6t-57 -13q-24 -11 -24 -31v-4z" />
    <glyph glyph-name="Scaron" unicode="&#x160;" horiz-adv-x="1348" 
d="M991 241q-49 3 -106.5 3.5t-139.5 0.5q-120 0 -220.5 3.5t-179.5 10t-133 15t-81 18.5q-26 9 -42.5 25t-26.5 36t-13.5 43t-3.5 48q0 74 33.5 120t108.5 74q35 12 79 22.5t102 18t131.5 11.5t167.5 4q87 0 173.5 -5t165 -13.5t143.5 -18t108 -18.5l-30 -192
q-138 23 -282 34t-278 11q-121 0 -196.5 -3.5t-117.5 -11.5q-26 -5 -26 -20q0 -8 6.5 -12.5t23.5 -6.5q12 -2 40.5 -2.5t64 -0.5h74.5h74q28 0 69.5 -0.5t91 -2t103 -4t107 -7t103 -11t89.5 -15.5q41 -9 66.5 -24t39.5 -35.5t19 -45t5 -53.5q0 -34 -4 -62.5t-14.5 -51.5
t-29 -41t-47.5 -31q-36 -17 -91.5 -29t-123 -20t-142 -12t-149.5 -4q-105 0 -203 5t-182 13.5t-151 18.5t-110 20l26 188q56 -8 127 -15.5t151.5 -13.5t167.5 -10t174 -4q66 0 113.5 1t81.5 3t57 4.5t40 5.5t22 8.5t5 13.5t-6 12t-24 5zM748 765h-195l-206 150v40h205
l95 -50h9l93 50h205v-40z" />
    <glyph glyph-name="scaron" unicode="&#x161;" horiz-adv-x="924" 
d="M590 196q-7 0 -19 0.5t-27 1t-31 0.5h-31q-90 0 -151 2t-103 6t-69 10.5t-48 14.5q-42 17 -56.5 50t-14.5 70q0 59 26.5 99.5t86.5 62.5q22 8 48.5 15t63.5 12t87.5 8t119.5 3q48 0 100 -2.5t101.5 -7t94.5 -11t80 -13.5l-24 -161q-114 16 -200 23t-158 7q-19 0 -39 -0.5
t-38.5 -1t-33.5 -2t-24 -2.5q-14 -2 -18.5 -8.5t-4.5 -14.5q0 -9 5.5 -14.5t19.5 -5.5t50 0.5t73 0.5q27 0 67.5 -1t85.5 -4t89.5 -8.5t79.5 -14.5q61 -15 83.5 -46.5t22.5 -79.5q0 -54 -17 -92.5t-59 -59.5q-24 -12 -61 -21t-82 -15t-95 -9t-101 -3q-74 0 -139.5 4
t-119.5 10t-94.5 13t-65.5 13l18 157q85 -14 184 -22.5t219 -8.5h32.5t34 0.5t31 1.5t23.5 2q14 2 19 8t5 15q0 8 -5.5 13t-20.5 6zM556 610h-195l-206 150v40h205l95 -50h9l93 50h205v-40z" />
    <glyph glyph-name="Ydieresis" unicode="&#x178;" horiz-adv-x="1284" 
d="M641 467h2l237 213h392v-10l-491 -440v-230h-278v230l-491 440v10h392zM326 843q0 41 33 65.5t111 24.5t111 -24.5t33 -65.5q0 -42 -33 -67.5t-111 -25.5t-111 25.5t-33 67.5zM674 843q0 41 33 65.5t111 24.5t111 -24.5t33 -65.5q0 -42 -33 -67.5t-111 -25.5t-111 25.5
t-33 67.5z" />
    <glyph glyph-name="Zcaron" unicode="&#x17d;" horiz-adv-x="1341" 
d="M40 111l476 273q26 15 57 30t58 27l63 28l-1 6q-45 -3 -91 -6q-39 -2 -85 -3.5t-84 -1.5h-370v216h1238v-112l-476 -273q-24 -14 -56 -29t-61 -28q-33 -15 -68 -30l2 -6q39 3 78 7q33 2 69 4.5t63 2.5h449v-216h-1261v111zM767 765h-195l-206 150v40h205l95 -50h9l93 50
h205v-40z" />
    <glyph glyph-name="zcaron" unicode="&#x17e;" horiz-adv-x="938" 
d="M40 0v116l287 171q12 7 30.5 16t36.5 17q21 9 44 18v6h-378v196h838v-116l-281 -167q-42 -25 -79 -41q-20 -9 -39 -16v-4h399v-196h-858zM575 610h-195l-206 150v40h205l95 -50h9l93 50h205v-40z" />
    <glyph glyph-name="florin" unicode="&#x192;" 
d="M344 182h-224v206h275l16 64q15 61 43 106t80 74t132 43.5t200 14.5q48 0 93.5 -3t85.5 -7.5t72 -9.5t53 -9l-34 -199q-18 3 -51 6.5t-71.5 7t-77.5 6t-70 2.5q-60 0 -98 -3.5t-60 -11t-32 -18t-13 -23.5l-10 -40h467v-206h-518l-52 -210q-16 -62 -44.5 -106t-72 -72
t-102.5 -41t-136 -13q-27 0 -57.5 2t-57 4t-46 4.5t-23.5 4.5l20 190q10 -2 27 -3.5t36 -2.5l38 -2t32 -1q20 0 40.5 1t36.5 5q21 5 36.5 18t20.5 35z" />
    <glyph glyph-name="circumflex" unicode="&#x2c6;" horiz-adv-x="800" 
d="M303 800h195l206 -150v-40h-205l-95 50h-9l-93 -50h-205v40z" />
    <glyph glyph-name="tilde" unicode="&#x2dc;" horiz-adv-x="600" 
d="M29 600v71q0 74 33.5 106.5t99.5 32.5q32 0 59.5 -7.5t48.5 -17.5l62 -29q15 -7 28 -12t23 -5q9 0 15 5.5t6 15.5v50h168v-71q0 -74 -33.5 -106.5t-99.5 -32.5q-32 0 -59.5 7.5t-48.5 17.5l-62 29q-15 7 -28.5 12t-22.5 5t-15 -5.5t-6 -15.5v-50h-168z" />
    <glyph glyph-name="endash" unicode="&#x2013;" horiz-adv-x="900" 
d="M50 211v178h800v-178h-800z" />
    <glyph glyph-name="emdash" unicode="&#x2014;" 
d="M50 211v178h1100v-178h-1100z" />
    <glyph glyph-name="quoteleft" unicode="&#x2018;" horiz-adv-x="378" 
d="M237 613v-7q52 -7 74 -30.5t22 -58.5q0 -41 -33 -65.5t-111 -24.5t-111 24.5t-33 65.5q0 36 16.5 72t41.5 79l30 52h125v-14z" />
    <glyph glyph-name="quoteright" unicode="&#x2019;" horiz-adv-x="378" 
d="M141 534v7q-52 7 -74 30.5t-22 58.5q0 41 33 65.5t111 24.5t111 -24.5t33 -65.5q0 -36 -16.5 -72t-41.5 -79l-30 -52h-125v14z" />
    <glyph glyph-name="quotesinglbase" unicode="&#x201a;" horiz-adv-x="378" 
d="M141 -13v7q-52 7 -74 30.5t-22 58.5q0 41 33 65.5t111 24.5t111 -24.5t33 -65.5q0 -36 -16.5 -72t-41.5 -79l-30 -52h-125v14z" />
    <glyph glyph-name="quotedblleft" unicode="&#x201c;" horiz-adv-x="726" 
d="M237 613v-7q52 -7 74 -30.5t22 -58.5q0 -41 -33 -65.5t-111 -24.5t-111 24.5t-33 65.5q0 36 16.5 72t41.5 79l30 52h125v-14zM585 613v-7q52 -7 74 -30.5t22 -58.5q0 -41 -33 -65.5t-111 -24.5t-111 24.5t-33 65.5q0 36 16.5 72t41.5 79l30 52h125v-14z" />
    <glyph glyph-name="quotedblright" unicode="&#x201d;" horiz-adv-x="726" 
d="M489 534v7q-52 7 -74 30.5t-22 58.5q0 41 33 65.5t111 24.5t111 -24.5t33 -65.5q0 -36 -16.5 -72t-41.5 -79l-30 -52h-125v14zM141 534v7q-52 7 -74 30.5t-22 58.5q0 41 33 65.5t111 24.5t111 -24.5t33 -65.5q0 -36 -16.5 -72t-41.5 -79l-30 -52h-125v14z" />
    <glyph glyph-name="quotedblbase" unicode="&#x201e;" horiz-adv-x="726" 
d="M141 -13v7q-52 7 -74 30.5t-22 58.5q0 41 33 65.5t111 24.5t111 -24.5t33 -65.5q0 -36 -16.5 -72t-41.5 -79l-30 -52h-125v14zM489 -13v7q-52 7 -74 30.5t-22 58.5q0 41 33 65.5t111 24.5t111 -24.5t33 -65.5q0 -36 -16.5 -72t-41.5 -79l-30 -52h-125v14z" />
    <glyph glyph-name="dagger" unicode="&#x2020;" horiz-adv-x="600" 
d="M580 302h-105l-72 16v-83l-21 -335h-165l-20 335v83l-72 -16h-105v188h105l72 -16v216h206v-216l72 16h105v-188z" />
    <glyph glyph-name="daggerdbl" unicode="&#x2021;" horiz-adv-x="600" 
d="M20 248h105l72 -16v126l-72 -16h-105v188h105l72 -16v176h206v-176l72 16h105v-188h-105l-72 16v-126l72 16h105v-188h-105l-72 16v-176h-206v176l-72 -16h-105v188z" />
    <glyph glyph-name="bullet" unicode="&#x2022;" horiz-adv-x="600" 
d="M98 271q0 28 11 51.5t35 40t62.5 25.5t93.5 9t93.5 -9t62.5 -25.5t35 -40t11 -51.5q0 -30 -11 -54t-35 -41t-62.5 -26.5t-93.5 -9.5t-93.5 9.5t-62.5 26.5t-35 41t-11 54z" />
    <glyph glyph-name="ellipsis" unicode="&#x2026;" 
d="M56 83q0 41 33 65.5t111 24.5t111 -24.5t33 -65.5q0 -42 -33 -67.5t-111 -25.5t-111 25.5t-33 67.5zM456 83q0 41 33 65.5t111 24.5t111 -24.5t33 -65.5q0 -42 -33 -67.5t-111 -25.5t-111 25.5t-33 67.5zM856 83q0 41 33 65.5t111 24.5t111 -24.5t33 -65.5
q0 -42 -33 -67.5t-111 -25.5t-111 25.5t-33 67.5z" />
    <glyph glyph-name="perthousand" unicode="&#x2030;" horiz-adv-x="1737" 
d="M833 700h215v-20l-680 -700h-215v20zM30 512q0 51 17 84t46 53q31 21 71 31.5t104 10.5q65 0 104.5 -10.5t70.5 -31.5q29 -20 46 -53t17 -84q0 -50 -17 -83.5t-46 -53.5q-31 -21 -70.5 -31.5t-104.5 -10.5q-64 0 -104 10.5t-71 31.5q-29 20 -46 53.5t-17 83.5zM268 545
q-15 0 -29.5 -1.5t-21.5 -3.5q-11 -3 -15 -11t-4 -17q0 -22 19 -28q7 -2 21.5 -3.5t29.5 -1.5t29.5 1.5t21.5 3.5q19 6 19 28q0 9 -4 17t-15 11q-7 2 -21.5 3.5t-29.5 1.5zM695 169q0 51 17 84t46 53q31 21 71 31.5t104 10.5q65 0 104.5 -10.5t70.5 -31.5q29 -20 46 -53
t17 -84q0 -50 -17 -83.5t-46 -53.5q-31 -21 -70.5 -31.5t-104.5 -10.5q-64 0 -104 10.5t-71 31.5q-29 20 -46 53.5t-17 83.5zM933 202q-15 0 -29.5 -1.5t-21.5 -3.5q-11 -3 -15 -11t-4 -17q0 -22 19 -28q7 -2 21.5 -3.5t29.5 -1.5t29.5 1.5t21.5 3.5q19 6 19 28q0 9 -4 17
t-15 11q-7 2 -21.5 3.5t-29.5 1.5zM1231 169q0 51 17 84t46 53q31 21 71 31.5t104 10.5q65 0 104.5 -10.5t70.5 -31.5q29 -20 46 -53t17 -84q0 -50 -17 -83.5t-46 -53.5q-31 -21 -70.5 -31.5t-104.5 -10.5q-64 0 -104 10.5t-71 31.5q-29 20 -46 53.5t-17 83.5zM1469 202
q-15 0 -29.5 -1.5t-21.5 -3.5q-11 -3 -15 -11t-4 -17q0 -22 19 -28q7 -2 21.5 -3.5t29.5 -1.5t29.5 1.5t21.5 3.5q19 6 19 28q0 9 -4 17t-15 11q-7 2 -21.5 3.5t-29.5 1.5z" />
    <glyph glyph-name="guilsinglleft" unicode="&#x2039;" horiz-adv-x="494" 
d="M40 323l236 197h198v-33l-194 -213v-8l194 -213v-33h-198l-236 197v106z" />
    <glyph glyph-name="guilsinglright" unicode="&#x203a;" horiz-adv-x="494" 
d="M454 217l-236 -197h-198v33l194 213v8l-194 213v33h198l236 -197v-106z" />
    <glyph glyph-name="Euro" unicode="&#x20ac;" 
d="M85 476h89q16 43 43.5 76t67.5 60q57 38 161 60t268 22q58 0 119.5 -5t119.5 -12.5t107.5 -17t84.5 -18.5v-19l-72 -125q-100 12 -190.5 16.5t-168.5 4.5q-88 0 -139.5 -4.5t-75.5 -11.5q-26 -8 -43 -26h604l-68 -118h-582v-21v-15h562l-68 -118h-447q10 -11 25 -17.5
t32 -10.5t42 -7t51.5 -4.5t52 -2t44.5 -0.5q54 0 111.5 3.5t113 8.5t107.5 12t97 13l17 -167q-75 -15 -184.5 -30.5t-261.5 -15.5q-60 0 -118.5 4.5t-110 13.5t-94.5 21t-73 27q-44 22 -81 57t-57 95h-140v24l54 94h68v15v21h-122v24z" />
    <glyph glyph-name="trademark" unicode="&#x2122;" 
d="M1006 440q0 5 0.5 14.5t1.5 18.5q1 11 3 22l-3 1l-10 -12q-5 -5 -10 -11t-10 -10l-106 -88h-7l-105 88q-5 4 -10 10t-10 11l-10 12l-3 -1l2 -22q1 -9 2 -18.5t1 -14.5v-90h-168v340h168l136 -113h2l136 113h168v-340h-168v90zM12 557v133h520v-133h-176v-207h-168v207
h-176z" />
    </font>
</defs>
</svg>
